<?xml version="1.0" standalone="no"?>
<!DOCTYPE svg PUBLIC "-//W3C//DTD SVG 1.1//EN" "http://www.w3.org/Graphics/SVG/1.1/DTD/svg11.dtd" >
<svg xmlns="http://www.w3.org/2000/svg">
<metadata>Generated by IcoMoon</metadata>
<defs>
<font id="marketing-icon" horiz-adv-x="1024">
<font-face units-per-em="1024" ascent="960" descent="-64" />
<missing-glyph horiz-adv-x="1024" />
<glyph unicode="&#x20;" horiz-adv-x="512" d="" />
<glyph unicode="&#xe900;" glyph-name="news" d="M979.547 712.062h-167.313v217.703c0 16.695-13.539 30.234-30.234 30.234h-737.766c-16.695 0-30.234-13.539-30.234-30.234v-864.758c0-71.133 57.875-129.008 129.008-129.008h737.766c71.133 0 129.008 57.875 129.008 129.008v616.82c0 16.695-13.539 30.234-30.234 30.234zM949.305 65.008c0-37.789-30.742-68.539-68.531-68.539-37.797 0-68.539 30.75-68.539 68.539v586.586h137.070zM143.008-3.531c-37.789 0-68.539 30.75-68.539 68.539v834.523h677.297v-834.523c0-25.172 7.273-48.664 19.789-68.539zM640.898 818.898h-455.563c-16.695 0-30.234-13.539-30.234-30.234v-213.672c0-16.695 13.539-30.234 30.234-30.234h455.563c16.695 0 30.234 13.539 30.234 30.234v213.672c0 16.695-13.539 30.234-30.234 30.234zM610.664 605.227h-395.086v153.195h395.086zM640.898 137.578h-455.563c-16.695 0-30.234-13.539-30.234-30.242 0-16.695 13.539-30.234 30.234-30.234h455.563c16.695 0 30.234 13.539 30.234 30.234 0 16.703-13.539 30.242-30.234 30.242zM640.898 254.484h-455.563c-16.695 0-30.234-13.531-30.234-30.234 0-16.695 13.539-30.234 30.234-30.234h455.563c16.695 0 30.234 13.539 30.234 30.234 0 16.703-13.539 30.234-30.234 30.234zM640.898 371.398h-455.563c-16.695 0-30.234-13.531-30.234-30.234 0-16.695 13.539-30.234 30.234-30.234h455.563c16.695 0 30.234 13.539 30.234 30.234 0 16.703-13.539 30.234-30.234 30.234zM640.898 488.312h-455.563c-16.695 0-30.234-13.539-30.234-30.234s13.539-30.234 30.234-30.234h455.563c16.695 0 30.234 13.539 30.234 30.234s-13.539 30.234-30.234 30.234z" />
<glyph unicode="&#xe901;" glyph-name="message" d="M993.523 776h-963.047c-16.828 0-30.477-13.648-30.477-30.477v-593.352c0-16.836 13.648-30.484 30.477-30.484h963.047c16.828 0 30.477 13.648 30.477 30.484v593.352c0 16.828-13.648 30.477-30.477 30.477zM60.961 680.75l280.375-231.906-280.375-231.906zM512 386.797l-396.852 328.242h793.703zM389.156 409.289l103.414-85.539c5.641-4.656 12.531-6.992 19.43-6.992s13.789 2.336 19.43 6.992l103.414 85.539 274.008-226.641h-793.703zM682.664 448.844l280.375 231.906v-463.813z" />
<glyph unicode="&#xe902;" glyph-name="money" d="M993.523 776h-963.047c-16.828 0-30.477-13.648-30.477-30.477v-593.359c0-16.828 13.648-30.477 30.477-30.477h963.047c16.828 0 30.477 13.648 30.477 30.477v593.359c0 16.828-13.648 30.477-30.477 30.477zM963.039 581.117c-69.102 11.336-123.992 65.305-136.742 133.922h136.742zM963.039 519.547v-141.406c-102.773-12.219-184.742-93.195-198.492-195.492h-508.523c-13.602 101.156-93.906 181.461-195.063 195.063v142.266c101.156 13.602 181.461 93.906 195.063 195.063h508.523c13.75-102.297 95.727-183.266 198.492-195.492zM194.266 715.039c-12.531-67.477-65.828-120.773-133.305-133.305v133.305zM60.961 315.953c67.477-12.531 120.773-65.828 133.305-133.305h-133.305zM826.297 182.648c12.75 68.617 67.641 122.586 136.742 133.922v-133.922zM511.992 619.547c-81.156 0-147.188-76.578-147.188-170.695s66.031-170.687 147.188-170.687c81.164 0 147.187 76.57 147.187 170.687s-66.023 170.695-147.188 170.695zM511.992 339.117c-47.547 0-86.227 49.227-86.227 109.734s38.68 109.734 86.227 109.734c47.547 0 86.234-49.227 86.234-109.734s-38.688-109.734-86.234-109.734z" />
<glyph unicode="&#xe903;" glyph-name="clock" d="M874.037 810.039c-96.703 96.703-225.281 149.961-362.038 149.961s-265.335-53.258-362.038-149.961c-96.703-96.703-149.961-225.281-149.961-362.038s53.258-265.335 149.961-362.038c96.703-96.703 225.281-149.961 362.038-149.961 136.765 0 265.335 53.258 362.038 149.961s149.961 225.281 149.961 362.038-53.258 265.335-149.961 362.038zM511.999-2.397c-248.351 0-450.398 202.046-450.398 450.398s202.046 450.398 450.398 450.398 450.398-202.046 450.398-450.398-202.046-450.398-450.398-450.398zM511.999 821.735c-206.078 0-373.734-167.656-373.734-373.734s167.656-373.734 373.734-373.734 373.734 167.656 373.734 373.734-167.656 373.734-373.734 373.734zM511.999 135.869c-172.109 0-312.132 140.023-312.132 312.132s140.023 312.132 312.132 312.132 312.132-140.023 312.132-312.132-140.023-312.132-312.132-312.132zM542.796 460.759v194.632c0 17.008-13.789 30.805-30.797 30.805-17.016 0-30.805-13.797-30.805-30.805v-201.234c0-1.047 0.055-2.078 0.156-3.102-0.875-8.867 2.070-18.039 8.867-24.836l143.75-143.75c6.008-6.008 13.898-9.016 21.773-9.016 7.883 0 15.766 3 21.781 9.016 12.031 12.031 12.031 31.531 0 43.562z" />
<glyph unicode="&#xe904;" glyph-name="cloud" d="M902.436 228.602c-56.625 0-104.32-38.914-117.773-91.398h-23.711c-13 0-23.57 10.57-23.57 23.57v146.406h92.609c106.976 0 194.007 87.031 194.007 194.007s-87.031 194.007-194.007 194.007c-9.594 0-19.141-0.711-28.578-2.109-36.945 127.406-154.015 216.914-289.413 216.914s-252.468-89.508-289.413-216.914c-9.437 1.406-18.984 2.109-28.578 2.109-106.976 0-194.007-87.031-194.007-194 0-106.976 87.031-194.007 194.007-194.007h92.609v-146.414c0-12.992-10.57-23.57-23.57-23.57h-23.711c-13.453 52.484-61.148 91.398-117.773 91.398-67.031 0-121.562-54.539-121.562-121.57s54.531-121.562 121.562-121.562c56.625 0 104.32 38.906 117.773 91.398h23.711c46.266 0 83.906 37.641 83.906 83.906v146.406h134.875v-82.375c-52.484-13.453-91.39-61.156-91.39-117.773 0-67.031 54.531-121.562 121.562-121.562s121.562 54.531 121.562 121.562c0 56.617-38.914 104.32-91.39 117.773v82.375h134.875v-146.406c0-46.266 37.641-83.906 83.906-83.906h23.711c13.453-52.492 61.148-91.398 117.773-91.398 67.031 0 121.562 54.531 121.562 121.562s-54.531 121.57-121.562 121.57zM121.562 45.805c-33.758 0-61.226 27.469-61.226 61.226 0 33.766 27.469 61.226 61.226 61.226 33.766 0 61.226-27.461 61.226-61.226 0-33.758-27.461-61.226-61.226-61.226zM573.225 107.032c0-33.758-27.469-61.226-61.226-61.226s-61.226 27.469-61.226 61.226c0 33.766 27.469 61.226 61.226 61.226s61.226-27.461 61.226-61.226zM60.336 501.195c0 73.703 59.961 133.664 133.672 133.664 14.164 0 28.18-2.234 41.648-6.648 8.297-2.719 17.359-1.711 24.859 2.766 7.492 4.477 12.68 11.977 14.227 20.57 20.625 114.797 120.406 198.117 237.257 198.117s216.632-83.32 237.257-198.117c1.547-8.594 6.734-16.094 14.227-20.57s16.562-5.484 24.859-2.766c13.469 4.414 27.484 6.648 41.648 6.648 73.703 0 133.672-59.961 133.672-133.664 0-73.711-59.961-133.672-133.672-133.672h-635.983c-73.711 0-133.672 59.961-133.672 133.672zM902.436 45.805c-33.766 0-61.226 27.469-61.226 61.226 0 33.766 27.461 61.234 61.226 61.234 33.758 0 61.226-27.469 61.226-61.234 0-33.758-27.469-61.226-61.226-61.226z" />
<glyph unicode="&#xe905;" glyph-name="mobile" d="M735.438 960h-447.422c-52.945 0-96.016-43.070-96.016-96.016v-831.969c0-52.945 43.070-96.016 96.016-96.016h447.422c52.938 0 96.016 43.070 96.016 96.016v831.969c0 52.945-43.078 96.016-96.016 96.016zM253.406 863.984c0 19.086 15.523 34.609 34.609 34.609h447.422c19.086 0 34.609-15.523 34.609-34.609v-654.75h-516.641zM770.047 32.016c0-19.086-15.523-34.609-34.609-34.609h-447.422c-19.086 0-34.609 15.523-34.609 34.609v115.813h516.641zM440.195 41.914h143.063c16.953 0 30.703 13.75 30.703 30.703s-13.75 30.703-30.703 30.703h-143.063c-16.953 0-30.703-13.75-30.703-30.703s13.75-30.703 30.703-30.703zM669.336 454.648h-19.102v229.242c0 16.953-13.75 30.695-30.703 30.695-16.961 0-30.703-13.742-30.703-30.695v-229.242h-46.398v167.836c0 16.953-13.742 30.703-30.695 30.703-16.961 0-30.703-13.75-30.703-30.703v-167.836h-46.391v106.43c0 16.961-13.75 30.703-30.703 30.703-16.961 0-30.703-13.742-30.703-30.703v-106.43h-19.117c-16.953 0-30.703-13.75-30.703-30.703s13.75-30.703 30.703-30.703h315.219c16.953 0 30.703 13.75 30.703 30.703s-13.75 30.703-30.703 30.703z" />
<glyph unicode="&#xe906;" glyph-name="bulb" d="M780.516 848.164c-70.117 70.914-163.617 110.617-263.266 111.813-1.531 0.016-3.031 0.023-4.555 0.023-204.883 0-373.422-165.328-376.648-370.617-0.836-53.484 9.305-105.313 30.164-154.062 20.109-47.016 49.133-88.836 86.258-124.313 38.945-37.211 61.281-88.586 61.281-140.938v-88.797c0-80.109 65.172-145.273 145.273-145.273h107.305c80.102 0 145.273 65.164 145.273 145.273v88.828c0 52.648 21.914 103.609 60.133 139.82 36.742 34.828 65.664 75.891 85.945 122.055 21.008 47.813 31.656 98.734 31.656 151.359 0 99.813-38.648 193.859-108.82 264.828zM650.078 81.273c0-46.18-37.57-83.758-83.75-83.758h-107.305c-46.18 0-83.75 37.578-83.75 83.758v55.883h274.805zM729.414 354.578c-43.461-41.188-70.945-96.836-77.703-155.906h-108.281v229.484l118.898 118.898c12.016 12.016 12.016 31.492 0 43.5-12.008 12.016-31.484 12.016-43.5 0l-106.156-106.156-106.156 106.156c-12.008 12.016-31.484 12.016-43.5 0-12.008-12.008-12.008-31.484 0-43.5l118.891-118.883v-229.5h-108.305c-6.867 58.852-34.672 114.813-78.633 156.813-64.211 61.359-98.813 144.086-97.414 232.93 2.711 171.758 143.711 310.070 315.148 310.070 1.266 0 2.539-0.008 3.813-0.023 171.648-2.055 311.305-143.422 311.305-315.125 0-87.383-34.945-168.617-98.406-228.758z" />
<glyph unicode="&#xe907;" glyph-name="mouse" d="M512.563 960h-0.008c-164.625 0-298.555-133.93-298.555-298.555v-426.891c0-164.625 133.93-298.555 298.555-298.555s298.555 133.93 298.555 298.555v426.891c-0.008 164.617-133.93 298.547-298.547 298.555zM749.813 234.555c0-130.828-106.43-237.266-237.258-237.266s-237.266 106.438-237.266 237.266v426.891c0 120.453 90.219 220.219 206.625 235.297v-162.734c-30.961-12.25-52.938-42.469-52.938-77.734v-155.336c0-46.086 37.5-83.586 83.586-83.586s83.578 37.5 83.578 83.586v155.336c0 35.266-21.969 65.484-52.938 77.734v162.727c116.406-15.078 206.617-114.844 206.617-235.289v-426.891zM490.266 656.273c0 12.289 10 22.289 22.297 22.289 12.289 0 22.289-10 22.289-22.289v-155.336c0-12.297-10-22.297-22.289-22.297-12.297 0-22.297 10-22.297 22.297z" />
<glyph unicode="&#xe908;" glyph-name="dartboard" d="M1022.321 767.297c-3.758 10.852-13.313 18.664-24.695 20.188l-128.68 17.219-21.422 127.906c-1.891 11.297-9.977 20.578-20.906 24-10.938 3.422-22.867 0.414-30.859-7.797l-57.898-59.391c-70.945 36.813-150.156 56.352-232.391 56.352-135.016 0-261.945-52.578-357.422-148.047-95.469-95.477-148.047-222.414-148.047-357.43s52.578-261.953 148.047-357.422c95.477-95.469 222.414-148.047 357.43-148.047s261.953 52.578 357.422 148.047 148.047 222.406 148.047 357.422c0 82.445-19.633 161.859-56.641 232.953l61.102 62.906c8 8.242 10.68 20.289 6.914 31.141zM869.641 673.359l-113.641 15.188-18.883 112.984 60.328 61.891 15.219-90.898c2.203-13.164 12.734-23.352 25.961-25.125l91.078-12.188zM60.82 440.297c0 245.188 199.469 444.656 444.649 444.656 66.977 0 130.523-14.914 187.539-41.539l-10.203-10.469c-6.766-6.938-9.813-16.68-8.219-26.242l12.453-74.477c-52.727 32.914-114.961 51.969-181.563 51.969-189.625 0-343.891-154.273-343.891-343.891 0-189.625 154.266-343.899 343.891-343.899 189.617 0 343.891 154.273 343.891 343.899 0 66.508-19 128.656-51.828 181.336l79.219-10.594c1.344-0.18 2.695-0.266 4.031-0.266 8.156 0 16.047 3.289 21.813 9.227l6.516 6.703c26.305-56.727 41.016-119.883 41.016-186.406 0-245.188-199.469-444.656-444.656-444.656s-444.656 199.469-444.656 444.649zM616.977 440.297c0-61.484-50.016-111.508-111.5-111.508s-111.508 50.023-111.508 111.508c0 61.484 50.023 111.508 111.508 111.508 19.992 0 38.758-5.32 55-14.57l-76.352-75.281c-11.961-11.789-12.094-31.039-0.305-43 5.953-6.039 13.797-9.063 21.656-9.063 7.711 0 15.422 2.914 21.352 8.75l76.367 75.297c8.773-15.922 13.781-34.203 13.781-53.641zM604.828 580.969c-28.102 19.906-62.367 31.656-99.359 31.656-95.016 0-172.32-77.305-172.32-172.32 0-95.023 77.305-172.328 172.32-172.328 95.023 0 172.328 77.305 172.328 172.328 0 36.109-11.188 69.648-30.25 97.367l79.586 78.469c38.422-48.328 61.414-109.445 61.414-175.844 0-156.086-126.992-283.070-283.078-283.070s-283.070 126.984-283.070 283.070c0 156.094 126.984 283.078 283.070 283.078 67.828 0 130.164-23.992 178.969-63.922z" />
<glyph unicode="&#xe909;" glyph-name="stats" d="M938.297 920h-852.594c-47.258 0-85.703-38.445-85.703-85.703v-639.992c0-47.258 38.445-85.703 85.703-85.703h320.016v-69.359h-30.664c-16.93 0-30.656-13.727-30.656-30.656s13.727-30.656 30.656-30.656h273.891c16.93 0 30.656 13.727 30.656 30.656s-13.727 30.656-30.656 30.656h-30.664v69.359h320.016c47.258 0 85.703 38.445 85.703 85.703v639.992c0 47.258-38.445 85.703-85.703 85.703zM556.969 39.242h-89.938v69.367h89.938zM962.68 194.305c0-13.445-10.938-24.383-24.383-24.383h-852.594c-13.445 0-24.383 10.938-24.383 24.383v75.758h901.359zM962.68 331.383h-901.359v502.914c0 13.445 10.938 24.383 24.383 24.383h852.594c13.445 0 24.383-10.938 24.383-24.383zM512 803.633c-115.023 0-208.602-93.578-208.602-208.602s93.578-208.602 208.602-208.602 208.602 93.578 208.602 208.602c0 115.031-93.578 208.602-208.602 208.602zM512 447.75c-81.211 0-147.289 66.070-147.289 147.281 0 70.703 50.086 129.906 116.633 144.055v-144.055c0-16.93 13.727-30.656 30.656-30.656h144.055c-14.148-66.547-73.352-116.625-144.055-116.625zM542.656 625.687v113.398c56.656-12.047 101.352-56.742 113.398-113.398z" />
<glyph unicode="&#xe90a;" glyph-name="phone" d="M801.913 336.469c-27.312 27.312-71.766 27.32-99.070 0l-90.414-90.414c-5.398-5.398-12.578-8.367-20.211-8.367s-14.812 2.969-20.211 8.367l-263.484 263.492c-11.148 11.141-11.148 29.273 0 40.422l90.406 90.406c27.312 27.312 27.312 71.758 0 99.070l-142.070 142.078c-27.312 27.312-71.758 27.312-99.078 0l-71.992-72c-114.383-114.383-114.383-300.5 0-414.882l371.312-371.32c55.414-55.406 129.086-85.922 207.445-85.922s152.031 30.516 207.437 85.922l72 72c13.234 13.234 20.523 30.82 20.523 49.539 0 18.711-7.289 36.305-20.523 49.531zM213.070 837.734l142.070-142.078c3.164-3.164 3.164-8.32 0-11.484l-29.508-29.508-153.562 153.562 29.5 29.508c3.172 3.164 8.328 3.164 11.5 0zM128.281 764.429l153.562-153.554-17.109-17.117c-35.297-35.289-35.297-92.711 0-128.008l263.484-263.484c17.094-17.094 39.82-26.508 64-26.508s46.906 9.414 64 26.508l17.117 17.117 153.562-153.554c-43.562-42.898-101.14-66.5-162.351-66.5-61.82 0-119.937 24.078-163.648 67.789l-371.32 371.312c-89.797 89.805-90.226 235.656-1.297 326zM900.194 139.118l-29.5-29.508-153.57 153.562 29.508 29.508c3.164 3.164 8.312 3.164 11.484 0l142.078-142.078c1.969-1.969 2.375-4.211 2.375-5.742 0-1.539-0.406-3.781-2.375-5.742zM522.577 584.984c69.703 0 126.406-56.711 126.406-126.414 0-17.094 13.867-30.961 30.969-30.961s30.969 13.867 30.969 30.961c0 103.859-84.492 188.343-188.343 188.343-17.102 0-30.969-13.867-30.969-30.969s13.867-30.961 30.969-30.961zM522.577 732.226c150.89 0 273.648-122.758 273.648-273.656 0-17.094 13.867-30.961 30.969-30.961s30.969 13.867 30.969 30.961c0 185.047-150.547 335.585-335.585 335.585-17.102 0-30.969-13.867-30.969-30.969 0-17.094 13.867-30.961 30.969-30.961zM877.131 813.132c-94.703 94.711-220.617 146.867-354.554 146.867-17.102 0-30.969-13.867-30.969-30.969s13.867-30.961 30.969-30.961c242.336 0 439.492-197.156 439.492-439.499 0-17.094 13.867-30.961 30.969-30.961s30.961 13.867 30.961 30.961c0 133.937-52.156 259.859-146.867 354.562z" />
<glyph unicode="&#xe90b;" glyph-name="graph" d="M874.029 810.038c-96.703 96.703-225.273 149.961-362.031 149.961-136.765 0-265.343-53.258-362.038-149.961-96.703-96.695-149.961-225.273-149.961-362.038 0-136.758 53.258-265.328 149.961-362.038 96.695-96.703 225.273-149.961 362.038-149.961 136.758 0 265.328 53.258 362.038 149.961 96.703 96.711 149.961 225.281 149.961 362.038 0 136.765-53.258 265.335-149.968 362.038zM961.35 478.805h-418.546v418.546c223.851-15.195 403.359-194.695 418.546-418.546zM511.999-2.398c-248.351 0-450.398 202.046-450.398 450.398 0 237.992 185.562 433.468 419.593 449.351v-449.351c0-17.008 13.789-30.805 30.805-30.805h449.351c-15.883-234.039-211.351-419.593-449.351-419.593z" />
<glyph unicode="&#xe90c;" glyph-name="stats-1" d="M993.344 271.109h-16.906v470.625c0 44.258-36.008 80.266-80.266 80.266h-768.344c-44.258 0-80.266-36.008-80.266-80.266v-470.625h-16.906c-16.93 0-30.656-13.727-30.656-30.656v-46.102c0-66.406 54.023-120.422 120.422-120.422h783.156c66.398 0 120.422 54.016 120.422 120.422v46.102c0 16.93-13.727 30.656-30.656 30.656zM962.68 209.797v-15.445c0-32.594-26.508-59.109-59.102-59.109h-783.156c-32.594 0-59.102 26.516-59.102 59.109v15.445zM108.883 741.734c0 10.453 8.5 18.945 18.945 18.945h768.344c10.445 0 18.945-8.492 18.945-18.945v-470.625h-806.234zM770.133 633.109h-106.289c-16.93 0-30.656-13.727-30.656-30.664 0-16.93 13.727-30.656 30.656-30.656h32.273l-158.586-158.578-129.305 129.313c-11.969 11.969-31.383 11.969-43.359 0l-132.68-132.688c-11.969-11.969-11.969-31.383 0-43.352 11.977-11.977 31.391-11.977 43.359 0l111.008 111 129.305-129.305c5.75-5.75 13.547-8.984 21.672-8.984 8.133 0 15.938 3.234 21.68 8.984l180.258 180.25v-32.266c0-16.93 13.727-30.656 30.656-30.656 16.938 0 30.664 13.727 30.664 30.656v106.281c0 16.938-13.727 30.664-30.656 30.664z" />
<glyph unicode="&#xe90d;" glyph-name="aim" d="M874.039 810.039c-96.703 96.703-225.281 149.961-362.039 149.961s-265.336-53.258-362.039-149.961c-96.703-96.703-149.961-225.281-149.961-362.039s53.258-265.336 149.961-362.039c96.703-96.703 225.281-149.961 362.039-149.961s265.336 53.258 362.039 149.961c96.703 96.703 149.961 225.281 149.961 362.039s-53.258 265.336-149.961 362.039zM742.141 478.398c-13.633 103.734-96.016 186.109-199.742 199.742v220.023c224.625-15.023 404.75-195.141 419.766-419.766zM481.602 478.398h-138.188c12.625 70.141 68.047 125.57 138.188 138.188zM481.602 417.602v-138.188c-70.141 12.625-125.57 68.047-138.188 138.188zM542.398 417.602h138.188c-12.625-70.141-68.047-125.57-138.188-138.188zM542.398 478.398v138.188c70.141-12.625 125.57-68.047 138.188-138.188zM481.602 898.164v-220.023c-103.734-13.633-186.109-96.016-199.742-199.742h-220.023c15.016 224.625 195.141 404.75 419.766 419.766zM281.859 417.602c13.625-103.734 96.008-186.109 199.742-199.742v-220.023c-224.625 15.016-404.75 195.141-419.766 419.766zM542.398-2.164v220.023c103.734 13.633 186.109 96.016 199.742 199.742h220.023c-15.023-224.625-195.141-404.75-419.766-419.766z" />
<glyph unicode="&#xe90e;" glyph-name="earn-money" d="M625.734 574.095v82.305h31.773c27.328 0 51.297 15.469 62.562 40.367 11.258 24.898 7.047 53.109-11 73.633l-146.195 166.281c-13.039 14.82-31.828 23.32-51.57 23.32-19.734 0-38.531-8.5-51.562-23.32l-146.211-166.281c-18.039-20.523-22.258-48.734-10.992-73.633 11.258-24.898 35.226-40.367 62.555-40.367h31.773v-82.312c-125.328-46.594-214.867-167.422-214.867-308.781 0-181.578 147.726-329.304 329.304-329.304s329.304 147.726 329.304 329.304c0 141.367-89.539 262.195-214.875 308.788zM243.649 265.306c0 147.586 120.070 267.656 267.656 267.656s267.664-120.070 267.664-267.656c0-147.586-120.070-267.656-267.664-267.656-147.586 0-267.656 120.070-267.656 267.656zM427.695 718.047h-62.601c-3 0-5.148 1.391-6.383 4.125-1.242 2.734-0.859 5.266 1.117 7.516l146.218 166.281c1.727 1.969 3.812 2.383 5.266 2.383 1.445 0 3.531-0.414 5.266-2.383l146.203-166.281c1.984-2.25 2.359-4.781 1.117-7.516-1.234-2.734-3.383-4.125-6.383-4.125h-62.601c-17.023 0-30.828-13.797-30.828-30.82v-96.859c-17.187 2.781-34.812 4.242-52.773 4.242-17.969 0-35.594-1.469-52.789-4.25v96.867c0 17.023-13.805 30.82-30.828 30.82zM511.305 310.868c-12.297 0-22.312 12.25-22.312 27.305s10.016 27.305 22.312 27.305h53.141c17.023 0 30.828 13.805 30.828 30.828s-13.805 30.82-30.828 30.82h-22.312v19.195c0 17.023-13.805 30.828-30.828 30.828s-30.82-13.805-30.82-30.828v-25.43c-31.086-13.055-53.141-45.195-53.141-82.719 0-49.047 37.664-88.953 83.961-88.953 12.305 0 22.312-12.25 22.312-27.312 0-15.055-10.008-27.305-22.312-27.305h-53.133c-17.023 0-30.828-13.797-30.828-30.82s13.805-30.828 30.828-30.828h22.312v-19.195c0-17.023 13.797-30.82 30.82-30.82s30.828 13.797 30.828 30.82v25.437c31.086 13.047 53.141 45.195 53.141 82.711 0 49.055-37.672 88.961-83.969 88.961z" />
<glyph unicode="&#xe90f;" glyph-name="grow-up" d="M994.656 732.641c-20.781 15.891-48.562 19.742-72.844 10.18l-244.961-78.797c-0.805-0.258-1.594-0.547-2.367-0.875-24.586-10.219-42-32.984-45.445-59.398-3.437-26.406 7.57-52.867 28.727-69.055l19.203-14.687-68.844-71.773-196.875 216.57c-23.359 27.586-57.477 42.953-93.789 42.109-36.453-0.867-70.008-18.023-92.172-47.203l-201.008-267.828c-19.25-25.352-27.477-56.687-23.164-88.227 4.32-31.547 20.656-59.516 46.016-78.766 21.5-16.336 46.812-24.219 71.93-24.219 36.023 0 71.648 16.227 95.062 47.062 0.055 0.062 0.102 0.133 0.156 0.203l111.773 149.805 188.945-207.437c22.336-26.367 54.93-41.711 89.648-42.125h1.281c34.133 0 66.641 14.648 89.25 40.203l172.125 186.016 29.328-22.437c12.078-9.234 26.492-14.523 41.68-15.281 11.031-0.562 22.273 1.391 32.484 5.641 24.586 10.227 42 32.984 45.437 59.398 0.133 1.023 0.211 2.055 0.242 3.094l7.109 260.516c2.742 25.82-8.234 51.477-28.93 67.312zM963.093 671.43c-0.133-1.023-0.211-2.062-0.242-3.094l-7.086-259.875c-0.953-4.469-4.062-8.242-8.32-10.016-1.937-0.805-3.977-1.164-6.078-1.055-2.844 0.141-5.539 1.133-7.805 2.859l-51.297 39.25c-12.461 9.531-30.133 8.016-40.781-3.5l-191.172-206.601c-0.18-0.187-0.352-0.383-0.523-0.578-11.086-12.617-27.070-19.852-43.867-19.852h-0.687c-17.055 0.203-33.117 7.82-44.070 20.891-0.273 0.32-0.547 0.641-0.828 0.953l-214.148 235.101c-5.773 6.336-13.937 9.922-22.469 9.922-0.492 0-0.984-0.008-1.484-0.031-9.062-0.445-17.453-4.914-22.875-12.187l-133.719-179.211c-19.492-25.57-56.141-30.547-81.75-11.102-25.641 19.469-30.664 56.18-11.086 81.953l201 267.828c10.812 14.227 27.25 22.641 45.062 23.062 17.922 0.391 34.758-7.211 46.203-20.875 0.266-0.32 0.539-0.625 0.812-0.93l219.156-241.078c5.664-6.234 13.664-9.836 22.078-9.953 8.414-0.156 16.516 3.273 22.344 9.352l114.898 119.797c5.992 6.242 9.031 14.734 8.375 23.359-0.664 8.625-4.969 16.562-11.836 21.82l-46.203 35.344c-3.961 3.023-6.016 7.977-5.375 12.922 0.609 4.641 3.516 8.68 7.68 10.742l244.469 78.641c0.805 0.258 1.594 0.547 2.375 0.875 4.602 1.914 9.914 1.219 13.875-1.805 3.961-3.039 6.023-7.984 5.375-12.93z" />
<glyph unicode="&#xe910;" glyph-name="billboard" d="M993.523 918h-963.047c-16.828 0-30.477-13.648-30.477-30.477v-528.469c0-16.828 13.648-30.469 30.477-30.469h49.688v-318.414c0-16.828 13.641-30.477 30.477-30.477h96.266c16.828 0 30.477 13.648 30.477 30.477v318.414h561.438v-318.414c0-16.828 13.648-30.477 30.477-30.477h96.273c16.828 0 30.477 13.648 30.477 30.477v318.414h37.477c16.828 0 30.477 13.641 30.477 30.469v528.469c0 16.828-13.648 30.477-30.477 30.477zM176.43 40.648h-35.313v285.578h35.313zM895.094 40.648h-35.32v285.578h35.32zM963.047 857.047v-311.219h-38.484l-90.172 90.172c-11.898 11.906-31.195 11.906-43.102 0l-70.563-70.563-67.844 67.852c-11.898 11.898-31.195 11.898-43.102 0l-87.578-87.578h-461.25v311.336zM60.953 389.531v95.227h473.867c8.086 0 15.836 3.211 21.555 8.922l74.953 74.961 67.852-67.844c11.898-11.906 31.195-11.906 43.102 0l70.555 70.555 77.555-77.547c5.719-5.719 13.469-8.93 21.547-8.93h51.109v-95.344zM243.938 599.195h166.992c50.539 0 91.656 41.117 91.656 91.664 0 48.125-37.289 87.703-84.484 91.375-21.328 28.094-54.57 44.906-90.664 44.906-36.102 0-69.344-16.813-90.672-44.906-47.195-3.672-84.484-43.258-84.484-91.383 0-50.539 41.117-91.656 91.656-91.656zM243.938 721.562c1.57 0 3.141-0.117 4.672-0.352 12.93-1.961 25.68 4.547 31.664 16.172 9.156 17.766 27.227 28.805 47.164 28.805s38-11.039 47.156-28.805c5.992-11.625 18.719-18.141 31.664-16.172 1.539 0.234 3.109 0.352 4.672 0.352 16.93 0 30.703-13.773 30.703-30.703s-13.773-30.711-30.703-30.711h-166.984c-16.938 0-30.711 13.781-30.711 30.711s13.773 30.703 30.703 30.703zM720.625 655.195c46.836 0 84.945 38.102 84.945 84.938 0 46.844-38.109 84.945-84.945 84.945s-84.945-38.102-84.945-84.945c0-46.836 38.109-84.938 84.945-84.938zM720.625 764.125c13.227 0 23.992-10.766 23.992-23.992s-10.766-23.984-23.992-23.984-23.992 10.758-23.992 23.984c0 13.227 10.766 23.992 23.992 23.992z" />
<glyph unicode="&#xe911;" glyph-name="mobile-1" d="M639.539 676.937h-255.625c-33.359 0-60.492-27.133-60.492-60.484v-138.906c0-33.352 27.133-60.484 60.492-60.484h61.734l41.453-55.672c5.789-7.781 14.922-12.367 24.625-12.367 9.695 0 18.828 4.586 24.625 12.367l41.445 55.672h61.742c33.359 0 60.492 27.133 60.492 60.484v138.906c0 33.352-27.133 60.484-60.492 60.484zM638.625 478.461h-76.25c-9.703 0-18.828-4.578-24.625-12.367l-26.023-34.961-26.031 34.961c-5.797 7.789-14.922 12.367-24.625 12.367h-76.242v137.070h253.797zM735.438 960h-447.422c-52.945 0-96.016-43.070-96.016-96.016v-831.969c0-52.945 43.070-96.016 96.016-96.016h447.422c52.938 0 96.016 43.070 96.016 96.016v831.969c0 52.945-43.078 96.016-96.016 96.016zM253.406 863.984c0 19.086 15.523 34.609 34.609 34.609h447.422c19.086 0 34.609-15.523 34.609-34.609v-654.75h-516.641zM770.047 32.016c0-19.086-15.523-34.609-34.609-34.609h-447.422c-19.086 0-34.609 15.523-34.609 34.609v115.813h516.641zM440.195 41.914h143.063c16.953 0 30.703 13.75 30.703 30.703s-13.75 30.703-30.703 30.703h-143.063c-16.953 0-30.703-13.75-30.703-30.703s13.75-30.703 30.703-30.703z" />
<glyph unicode="&#xe912;" glyph-name="coding" d="M993.602 922h-963.203c-16.789 0-30.398-13.609-30.398-30.398v-888.484c0-16.781 13.609-30.391 30.398-30.391h963.203c16.789 0 30.398 13.609 30.398 30.391v888.484c0 16.789-13.609 30.398-30.398 30.398zM60.789 861.211h902.422v-124.203h-902.422zM963.211 33.516h-902.422v642.703h902.422zM332.914 207.055c5.938-5.938 13.719-8.898 21.492-8.898 7.781 0 15.563 2.969 21.492 8.898 11.875 11.875 11.875 31.117 0 42.992l-104.82 104.82 104.82 104.82c11.875 11.867 11.875 31.117 0 42.984-11.867 11.867-31.109 11.867-42.984 0l-126.313-126.313c-11.867-11.867-11.867-31.117 0-42.984zM669.594 271.539l-21.492-21.492c-11.875-11.875-11.875-31.117 0-42.992 5.93-5.93 13.711-8.898 21.492-8.898 7.773 0 15.555 2.969 21.492 8.898l126.313 126.32c11.867 11.867 11.867 31.117 0 42.984l-126.313 126.313c-11.875 11.875-31.117 11.875-42.992 0-11.867-11.867-11.867-31.117 0-42.984l104.828-104.82zM447.211 200.523c3.844-1.609 7.836-2.375 11.75-2.375 11.875 0 23.156 7 28.039 18.633l106.047 252.633c6.492 15.477-0.781 33.297-16.266 39.789-15.477 6.5-33.289-0.781-39.789-16.258l-106.039-252.633c-6.5-15.477 0.781-33.289 16.258-39.789zM899.195 829.5c-15.898 0-31.133-13.977-30.398-30.391 0.734-16.469 13.359-30.398 30.398-30.398 15.898 0 31.125 13.984 30.391 30.398-0.734 16.469-13.352 30.391-30.391 30.391zM803.758 829.5c-15.898 0-31.133-13.977-30.398-30.391 0.742-16.469 13.359-30.398 30.398-30.398 15.898 0 31.133 13.984 30.398 30.398-0.742 16.469-13.359 30.391-30.398 30.391zM708.32 829.5c-15.898 0-31.125-13.977-30.391-30.391 0.734-16.469 13.352-30.398 30.391-30.398 15.898 0 31.133 13.984 30.398 30.398-0.734 16.469-13.352 30.391-30.398 30.391z" />
<glyph unicode="&#xe913;" glyph-name="media" d="M993.602 922h-963.203c-16.789 0-30.398-13.609-30.398-30.398v-888.484c0-16.781 13.609-30.391 30.398-30.391h963.203c16.789 0 30.398 13.609 30.398 30.391v888.484c0 16.789-13.609 30.398-30.398 30.398zM60.789 861.211h902.422v-124.203h-902.422zM963.211 33.516h-902.422v642.703h902.422zM234.859 143.281h554.281c16.789 0 30.398 13.609 30.398 30.391v362.383c0 16.789-13.609 30.398-30.398 30.398h-554.281c-16.789 0-30.398-13.609-30.398-30.398v-362.383c0-16.781 13.609-30.391 30.398-30.391zM265.258 505.664h493.484v-301.594h-493.484zM606.031 382.070l-160.945 80.211c-9.422 4.695-20.602 4.18-29.555-1.359s-14.398-15.32-14.398-25.844v-160.422c0-10.531 5.445-20.313 14.398-25.852 4.883-3.023 10.43-4.547 16-4.547 4.633 0 9.273 1.055 13.555 3.188l160.945 80.219c10.313 5.141 16.836 15.672 16.836 27.203 0 11.523-6.516 22.063-16.836 27.203zM461.922 323.766v62.203l62.406-31.102zM899.195 829.5c-15.898 0-31.133-13.977-30.398-30.391 0.734-16.469 13.359-30.398 30.398-30.398 15.898 0 31.125 13.984 30.391 30.398-0.734 16.469-13.352 30.391-30.391 30.391zM803.758 829.5c-15.898 0-31.133-13.977-30.398-30.391 0.742-16.469 13.359-30.398 30.398-30.398 15.898 0 31.133 13.984 30.398 30.398-0.742 16.469-13.359 30.391-30.398 30.391zM708.32 829.5c-15.898 0-31.125-13.977-30.391-30.391 0.734-16.469 13.352-30.398 30.391-30.398 15.898 0 31.133 13.984 30.398 30.398-0.734 16.469-13.352 30.391-30.398 30.391z" />
<glyph unicode="&#xe914;" glyph-name="target" d="M874.037 810.038c-96.703 96.703-225.281 149.961-362.038 149.961s-265.335-53.258-362.038-149.961c-96.703-96.703-149.961-225.281-149.961-362.038s53.258-265.335 149.961-362.038c96.703-96.703 225.281-149.961 362.038-149.961s265.335 53.258 362.038 149.961c96.703 96.703 149.961 225.281 149.961 362.038s-53.258 265.335-149.961 362.038zM542.39-2.163v90.156c0 16.781-13.602 30.391-30.391 30.391s-30.398-13.609-30.398-30.391v-90.156c-224.625 15.016-404.749 195.14-419.765 419.765h90.156c16.789 0 30.391 13.609 30.391 30.398s-13.602 30.391-30.391 30.391h-90.156c15.023 224.632 195.14 404.757 419.765 419.773v-90.156c0-16.789 13.609-30.398 30.398-30.398s30.398 13.609 30.398 30.398v90.156c224.625-15.023 404.749-195.148 419.765-419.773h-90.156c-16.781 0-30.391-13.602-30.391-30.391s13.609-30.398 30.391-30.398h90.156c-15.023-224.625-195.148-404.749-419.773-419.765zM601.085 482.055c21.836 22.43 35.32 53.016 35.32 86.719 0 68.601-55.812 124.414-124.414 124.414s-124.414-55.812-124.414-124.414c0-33.703 13.492-64.297 35.328-86.726-56.391-31.398-94.625-91.625-94.625-160.617v-88.226c0-16.781 13.609-30.391 30.391-30.391h306.656c16.789 0 30.398 13.609 30.398 30.391v88.226c-0.008 69-38.25 129.226-94.64 160.625zM634.928 263.602h-245.859v57.828c0 67.781 55.141 122.929 122.929 122.929 67.781 0 122.929-55.148 122.929-122.929zM511.991 632.398c35.086 0 63.625-28.539 63.625-63.625 0-35.078-28.539-63.625-63.625-63.625-35.078 0-63.625 28.547-63.625 63.625 0 35.086 28.547 63.625 63.625 63.625z" />
<glyph unicode="&#xe915;" glyph-name="levels" d="M938.297 920h-852.594c-47.258 0-85.703-38.445-85.703-85.703v-639.992c0-47.258 38.445-85.703 85.703-85.703h320.016v-69.359h-30.664c-16.93 0-30.656-13.727-30.656-30.656s13.727-30.656 30.656-30.656h273.891c16.93 0 30.656 13.727 30.656 30.656s-13.727 30.656-30.656 30.656h-30.664v69.359h320.016c47.258 0 85.703 38.445 85.703 85.703v639.992c0 47.258-38.445 85.703-85.703 85.703zM556.969 39.242h-89.938v69.367h89.938zM962.68 194.305c0-13.445-10.938-24.383-24.383-24.383h-852.594c-13.445 0-24.383 10.938-24.383 24.383v75.758h901.359zM962.68 331.383h-901.359v502.914c0 13.445 10.938 24.383 24.383 24.383h852.594c13.445 0 24.391-10.938 24.391-24.383v-502.914zM331.453 719.727h-22.492v46.047c0 16.93-13.727 30.656-30.664 30.656-16.93 0-30.656-13.727-30.656-30.656v-46.047h-22.492c-16.938 0-30.664-13.727-30.664-30.656v-106.313c0-16.93 13.727-30.656 30.664-30.656h22.492v-127.805c0-16.93 13.727-30.656 30.656-30.656 16.938 0 30.664 13.727 30.664 30.656v127.805h22.492c16.938 0 30.664 13.727 30.664 30.656v106.313c0 16.93-13.727 30.656-30.664 30.656zM300.797 613.414h-44.992v44.992h44.992zM565.156 637.969h-22.5v127.805c0 16.93-13.734 30.656-30.664 30.656s-30.656-13.727-30.656-30.656v-127.805h-22.492c-16.93 0-30.656-13.727-30.656-30.656v-106.313c0-16.93 13.727-30.656 30.656-30.656h22.492v-46.047c0-16.93 13.727-30.656 30.656-30.656s30.664 13.727 30.664 30.656v46.047h22.5c16.93 0 30.656 13.727 30.656 30.656v106.313c0 16.93-13.727 30.656-30.656 30.656zM534.5 531.656h-45v44.992h45zM798.852 719.727h-22.508v46.047c0 16.93-13.727 30.656-30.656 30.656s-30.656-13.727-30.656-30.656v-46.047h-22.484c-16.938 0-30.664-13.727-30.664-30.656v-106.313c0-16.93 13.727-30.656 30.664-30.656h22.484v-127.805c0-16.93 13.727-30.656 30.656-30.656s30.656 13.727 30.656 30.656v127.805h22.508c16.938 0 30.664 13.727 30.664 30.656v106.313c0 16.93-13.727 30.656-30.664 30.656zM768.195 613.414h-44.992v44.992h44.992z" />
<glyph unicode="&#xe916;" glyph-name="vision" d="M1017.1 466.125c-2.297 2.781-57.25 68.812-146.312 135.476-52.57 39.344-106.211 70.758-159.445 93.359-48.164 20.445-96.109 33.656-143.148 39.578-18.195 3.57-36.977 5.461-56.195 5.461s-38-1.891-56.187-5.461c-47.047-5.922-94.984-19.133-143.148-39.578-53.242-22.602-106.883-54.016-159.453-93.359-89.062-66.664-144.015-132.695-146.312-135.476-9.195-11.125-9.195-27.219 0-38.352 2.297-2.781 57.25-68.812 146.312-135.469 52.57-39.352 106.211-70.758 159.453-93.359 67.5-28.664 134.562-43.195 199.336-43.195s131.844 14.531 199.344 43.195c53.234 22.602 106.883 54.008 159.445 93.359 89.062 66.656 144.015 132.687 146.312 135.469 9.195 11.133 9.195 27.227 0 38.352zM742.983 448.805c0-127.367-103.617-230.984-230.984-230.984s-230.984 103.617-230.984 230.984c0 115.39 85.055 211.289 195.765 228.297 11.633 1.094 23.375 1.68 35.219 1.68 11.852 0 23.594-0.586 35.219-1.68 110.711-17.008 195.765-112.906 195.765-228.297zM70.484 446.953c22.039 23.609 64.18 65.687 119.953 107.297 21.898 16.328 47.297 33.641 75.43 49.992-28.523-45.008-45.070-98.328-45.070-155.437 0-59.523 17.969-114.914 48.734-161.078-29.594 16.867-56.25 34.883-79.094 51.922-55.781 41.609-97.914 83.695-119.953 107.305zM833.561 339.649c-22.844-17.039-49.5-35.055-79.094-51.922 30.773 46.164 48.734 101.555 48.734 161.078 0 57.109-16.547 110.43-45.070 155.437 28.133-16.352 53.531-33.664 75.43-49.992 55.781-41.609 97.914-83.687 119.953-107.297-22.039-23.617-64.172-65.695-119.953-107.305zM343.968 448.805c0-92.656 75.375-168.031 168.031-168.031s168.031 75.375 168.031 168.031c0 16.617-2.445 33.078-7.258 48.922-4.32 14.211-18.344 23.133-33.055 21.047-2.469-0.352-4.914-0.531-7.289-0.531-28.109 0-50.984 22.875-50.984 50.992 0 2.367 0.18 4.812 0.531 7.281 2.094 14.703-6.844 28.742-21.047 33.055-15.852 4.82-32.32 7.266-48.93 7.266-92.656 0-168.031-75.383-168.031-168.031zM619.359 458.797c0.305-3.312 0.461-6.648 0.461-9.992 0-59.453-48.367-107.82-107.82-107.82s-107.82 48.367-107.82 107.82c0 59.445 48.367 107.82 107.82 107.82 3.344 0 6.68-0.156 9.992-0.461 5.992-50.891 46.477-91.383 97.367-97.367z" />
<glyph unicode="&#xe917;" glyph-name="money-1" d="M993.344 271.109h-16.906v470.625c0 44.258-36.008 80.266-80.266 80.266h-768.344c-44.258 0-80.266-36.008-80.266-80.266v-470.625h-16.906c-16.93 0-30.656-13.727-30.656-30.656v-46.109c0-66.398 54.023-120.414 120.422-120.414h783.156c66.398 0 120.422 54.016 120.422 120.422v46.102c0 16.93-13.727 30.656-30.656 30.656zM962.68 209.797v-15.445c0-32.594-26.508-59.109-59.102-59.109h-783.156c-32.594 0-59.102 26.516-59.102 59.109v15.445zM108.883 741.734c0 10.445 8.5 18.945 18.945 18.945h768.344c10.445 0 18.945-8.492 18.945-18.945v-470.625h-806.234zM543.313 554.445c16.93 0 30.656 13.727 30.656 30.664 0 16.93-13.727 30.656-30.656 30.656h-1.016c-0.469 16.523-13.977 29.773-30.617 29.773-16.93 0-30.656-13.727-30.656-30.656v-7.602c-18.867-11.234-31.633-32.469-31.633-56.781 0-35.836 27.711-65.023 61.867-65.258 0.453-0.406 1.398-1.672 1.398-3.953 0-2.273-0.945-3.539-1.391-3.945h-31.219c-16.93 0-30.656-13.727-30.656-30.664 0-16.93 13.727-30.656 30.656-30.656h1.023c0.469-16.523 13.977-29.773 30.609-29.773 16.93 0 30.656 13.727 30.656 30.656v7.602c18.875 11.234 31.641 32.469 31.641 56.781 0 35.836-27.719 65.023-61.875 65.266-0.445 0.406-1.398 1.664-1.398 3.945 0 2.273 0.945 3.539 1.398 3.945zM512 727.297c-116.57 0-211.414-94.836-211.414-211.414 0-116.57 94.836-211.406 211.414-211.406s211.414 94.836 211.414 211.406c0 116.578-94.844 211.414-211.414 211.414zM512 365.789c-82.766 0-150.094 67.336-150.094 150.102 0 82.758 67.328 150.094 150.094 150.094s150.094-67.336 150.094-150.094c0-82.766-67.328-150.102-150.094-150.102z" />
<glyph unicode="&#xe918;" glyph-name="location" d="M512.391 677.234h63.211c17.094 0 30.953 13.859 30.953 30.953 0 17.102-13.859 30.961-30.953 30.961h-32.25v28.539c0 17.094-13.859 30.953-30.961 30.953-17.094 0-30.953-13.859-30.953-30.953v-34.125c-36.758-13.648-63.203-50.852-63.203-94.516 0-55.195 42.242-100.102 94.156-100.102 17.789 0 32.25-17.133 32.25-38.195 0-21.055-14.469-38.188-32.25-38.188h-63.203c-17.094 0-30.953-13.859-30.953-30.953s13.859-30.961 30.953-30.961h32.25v-28.539c0-17.094 13.859-30.953 30.953-30.953 17.102 0 30.961 13.859 30.961 30.953v34.125c36.758 13.648 63.203 50.852 63.203 94.516 0 55.203-42.242 100.11-94.164 100.11-17.781 0-32.242 17.125-32.242 38.188 0 21.055 14.461 38.188 32.242 38.188zM513.031 962c-200.18 0-363.032-162.86-363.032-363.032 0-110.524 57.578-253.985 171.141-426.407 83.242-126.375 165.18-220.094 168.625-224.024 5.875-6.695 14.359-10.539 23.266-10.539s17.391 3.844 23.266 10.539c3.445 3.93 85.391 97.649 168.625 224.024 113.563 172.422 171.141 315.883 171.141 426.407 0.008 200.172-162.852 363.032-363.032 363.032zM513.031 17.053c-74.344 90.453-301.118 382.72-301.118 581.915 0 166.039 135.078 301.118 301.118 301.118s301.118-135.078 301.118-301.118c0.008-199.196-226.774-491.47-301.118-581.915z" />
<glyph unicode="&#xe919;" glyph-name="shopping-bag" d="M925.32 67.711l-70.094 648.109c-1.727 15.93-15.18 28.016-31.211 28.016h-115.844v21c0.008 107.609-87.547 195.164-195.164 195.164-107.609 0-195.164-87.555-195.164-195.164v-21h-115.852c-16.031 0-29.484-12.078-31.211-28.016l-70.094-648.109c-3.625-33.523 7.211-67.133 29.734-92.227s54.781-39.484 88.5-39.484h588.156c33.719 0 65.977 14.391 88.508 39.484 22.523 25.094 33.359 58.711 29.734 92.227zM380.625 764.836c0 72.992 59.391 132.383 132.383 132.383 73 0 132.383-59.391 132.383-132.383v-21h-264.766zM848.859 17.422c-10.789-12.016-25.625-18.641-41.773-18.641h-588.164c-16.148 0-30.984 6.625-41.781 18.641-10.781 12.023-15.773 27.484-14.031 43.539l67.063 620.086h87.672v-79.992c0-17.336 14.055-31.391 31.391-31.391s31.391 14.055 31.391 31.391v79.992h264.766v-79.992c0-17.336 14.055-31.391 31.391-31.391 17.344 0 31.398 14.055 31.398 31.391v79.992h87.656l67.063-620.086c1.734-16.055-3.25-31.516-14.039-43.539zM512.68 390.227h46.234c17.336 0 31.391 14.055 31.391 31.391s-14.055 31.391-31.391 31.391h-14.836v12.133c0 17.336-14.063 31.391-31.398 31.391s-31.391-14.055-31.391-31.391v-19.156c-27.203-12.758-46.227-41.539-46.227-74.938 0-45.203 34.82-81.969 77.617-81.969 8.047 0 14.844-8.781 14.844-19.18 0-10.406-6.797-19.188-14.844-19.188h-46.227c-17.336 0-31.391-14.055-31.391-31.391s14.055-31.391 31.391-31.391h14.836v-12.125c0-17.344 14.055-31.398 31.391-31.398s31.398 14.055 31.398 31.398v19.148c27.195 12.758 46.227 41.539 46.227 74.945 0 45.195-34.82 81.961-77.625 81.961-8.039 0-14.836 8.789-14.836 19.188s6.797 19.18 14.836 19.18z" />
<glyph unicode="&#xe91a;" glyph-name="briefcase" d="M921.93 715.93h-223.234v75.813c0 43.156-35.102 78.258-78.258 78.258h-216.875c-43.156 0-78.258-35.102-78.258-78.258v-75.813h-223.234c-56.281 0-102.070-45.789-102.070-102.070v-486.547c0-56.281 45.789-102.070 102.070-102.070h819.859c56.281 0 102.070 45.789 102.070 102.070v486.547c0 56.281-45.789 102.070-102.070 102.070zM386.094 791.742c0 9.633 7.836 17.469 17.469 17.469h216.875c9.633 0 17.469-7.836 17.469-17.469v-75.813h-251.813zM60.789 613.859c0 22.758 18.523 41.281 41.281 41.281h819.859c22.758 0 41.281-18.523 41.281-41.281v-90.273h-902.422zM403.555 462.797h216.891v-25.883c0-27.672-22.508-50.18-50.188-50.18h-116.523c-27.672 0-50.18 22.508-50.18 50.18zM963.211 127.312c0-22.766-18.523-41.281-41.281-41.281h-819.859c-22.758 0-41.281 18.516-41.281 41.281v335.484h281.969v-25.883c0-61.188 49.789-110.969 110.977-110.969h116.523c61.195 0 110.977 49.781 110.977 110.969v25.883h281.977z" />
<glyph unicode="&#xe91b;" glyph-name="time-management" d="M958.594 681.984c0 7.992-3.172 15.656-8.82 21.297l-116.484 116.492c-11.758 11.758-30.828 11.758-42.594 0l-75.398-75.391c-32.578 18.836-67.414 33.273-103.773 42.984v142.516c0 16.633-13.484 30.117-30.117 30.117h-164.742c-16.633 0-30.117-13.484-30.117-30.117v-142.516c-72.594-19.398-139.156-57.578-193.711-112.133-81.789-81.789-126.836-190.531-126.836-306.203 0-115.664 45.047-224.414 126.836-306.195 81.789-81.789 190.531-126.836 306.203-126.836 115.664 0 224.414 45.047 306.195 126.836 81.789 81.781 126.836 190.531 126.836 306.195 0 77.156-20.070 151.219-57.688 216.266l75.391 75.391c5.648 5.648 8.82 13.313 8.82 21.297zM499.039-3.766c-205.563 0-372.805 167.234-372.805 372.797s167.242 372.805 372.805 372.805 372.797-167.242 372.797-372.805-167.242-372.797-372.797-372.797zM551.289 899.766v-100.813c-17.211 2.055-34.648 3.117-52.25 3.117s-35.039-1.063-52.25-3.117v100.813zM805.234 675.234c-12.445 12.445-25.523 24.031-39.148 34.75l45.906 45.898 73.891-73.898-45.898-45.898c-10.719 13.625-22.297 26.703-34.75 39.148zM499.039 672.758c-167.477 0-303.727-136.25-303.727-303.727s136.25-303.727 303.727-303.727 303.727 136.25 303.727 303.727-136.25 303.727-303.727 303.727zM499.039 125.547c-134.266 0-243.492 109.227-243.492 243.484 0 134.266 109.227 243.492 243.492 243.492 134.258 0 243.484-109.227 243.484-243.492 0-134.258-109.227-243.484-243.484-243.484zM529.156 455.641v68.461c0 16.633-13.484 30.125-30.117 30.125s-30.117-13.492-30.117-30.125v-68.461c-35.82-12.492-61.594-46.586-61.594-86.609 0-50.57 41.141-91.711 91.711-91.711s91.711 41.141 91.711 91.711c-0.008 40.023-25.781 74.117-61.594 86.609zM499.039 337.555c-17.359 0-31.477 14.125-31.477 31.477 0 17.359 14.117 31.477 31.477 31.477 17.352 0 31.477-14.117 31.477-31.477-0.008-17.352-14.125-31.477-31.477-31.477z" />
<glyph unicode="&#xe91c;" glyph-name="list" d="M735.438 960h-447.422c-52.945 0-96.016-43.070-96.016-96.016v-831.969c0-52.945 43.070-96.016 96.016-96.016h447.422c52.945 0 96.016 43.070 96.016 96.016v831.969c0 52.945-43.078 96.016-96.016 96.016zM253.398 863.984c0 19.086 15.531 34.609 34.617 34.609h447.422c19.086 0 34.609-15.523 34.609-34.609v-654.75h-516.648zM770.047 32.016c0-19.086-15.523-34.609-34.609-34.609h-447.422c-19.086 0-34.609 15.523-34.609 34.609v115.813h516.641zM440.195 41.914h143.063c16.953 0 30.695 13.75 30.695 30.703s-13.742 30.703-30.695 30.703h-143.063c-16.961 0-30.703-13.75-30.703-30.703s13.742-30.703 30.703-30.703zM664.211 774.453h-208.773c-16.953 0-30.703-13.742-30.703-30.695 0-16.961 13.75-30.703 30.703-30.703h208.773c16.953 0 30.703 13.742 30.703 30.703 0 16.953-13.75 30.695-30.703 30.695zM359.242 774.453c-16.063 0-31.445-14.117-30.703-30.695 0.742-16.641 13.484-30.703 30.703-30.703 16.055 0 31.438 14.117 30.695 30.703-0.742 16.633-13.484 30.695-30.695 30.695zM664.211 641.984h-208.773c-16.953 0-30.703-13.75-30.703-30.703 0-16.961 13.75-30.703 30.703-30.703h208.773c16.953 0 30.703 13.742 30.703 30.703 0 16.953-13.75 30.703-30.703 30.703zM359.242 641.984c-16.063 0-31.445-14.125-30.703-30.703 0.742-16.633 13.484-30.703 30.703-30.703 16.055 0 31.438 14.117 30.695 30.703-0.742 16.633-13.484 30.703-30.695 30.703zM664.211 509.508h-208.773c-16.953 0-30.703-13.75-30.703-30.703 0-16.961 13.75-30.703 30.703-30.703h208.773c16.953 0 30.703 13.742 30.703 30.703 0 16.953-13.75 30.703-30.703 30.703zM359.242 509.508c-16.063 0-31.445-14.125-30.703-30.703 0.742-16.633 13.484-30.703 30.703-30.703 16.055 0 31.438 14.117 30.695 30.703-0.742 16.633-13.484 30.703-30.695 30.703zM664.211 377.031h-208.773c-16.953 0-30.703-13.75-30.703-30.703s13.75-30.703 30.703-30.703h208.773c16.953 0 30.703 13.75 30.703 30.703s-13.75 30.703-30.703 30.703zM359.242 377.031c-16.063 0-31.445-14.125-30.703-30.703 0.742-16.633 13.484-30.703 30.703-30.703 16.055 0 31.438 14.125 30.695 30.703-0.742 16.633-13.484 30.703-30.695 30.703z" />
<glyph unicode="&#xe91d;" glyph-name="viral" d="M512 493.234h34.414c16.602 0 30.055 13.461 30.055 30.063s-13.453 30.055-30.055 30.055h-4.352v2.336c0 16.602-13.461 30.063-30.063 30.063s-30.063-13.461-30.063-30.063v-10.172c-20.445-11.367-34.406-33.93-34.406-59.867 0-37.336 28.922-67.711 64.469-67.711 1.531 0 4.352-2.875 4.352-7.586 0-4.703-2.82-7.586-4.352-7.586h-34.414c-16.602 0-30.055-13.461-30.055-30.063s13.453-30.055 30.055-30.055h4.352v-2.336c0-16.602 13.461-30.063 30.063-30.063s30.063 13.461 30.063 30.063v10.172c20.445 11.367 34.406 33.93 34.406 59.867 0 37.336-28.922 67.711-64.469 67.711-1.531 0-4.352 2.875-4.352 7.586 0 4.703 2.82 7.586 4.352 7.586zM919.281 552.719c-47.289 0-87.344-31.523-100.297-74.656h-82.281c-5.328 40.070-21.164 76.852-44.641 107.5l58.227 58.227c15.086-8.164 32.063-12.508 49.703-12.508 27.969 0 54.266 10.891 74.039 30.672 19.781 19.781 30.672 46.078 30.672 74.047s-10.891 54.266-30.672 74.047c-40.828 40.828-107.258 40.828-148.086 0-19.781-19.781-30.672-46.078-30.672-74.047 0-17.641 4.344-34.609 12.5-49.703l-58.219-58.227c-30.656 23.469-67.438 39.305-107.5 44.633v82.281c43.133 12.953 74.656 53.008 74.656 100.297 0 57.742-46.977 104.719-104.719 104.719s-104.711-46.977-104.711-104.719c0-47.297 31.523-87.344 74.656-100.297v-82.281c-40.070-5.336-76.852-21.172-107.5-44.641l-58.219 58.227c8.156 15.086 12.5 32.063 12.5 49.703 0 27.969-10.891 54.266-30.672 74.039-19.781 19.781-46.078 30.672-74.047 30.672s-54.266-10.891-74.047-30.672c-19.773-19.773-30.672-46.070-30.672-74.039s10.898-54.273 30.672-74.047c20.414-20.414 47.234-30.625 74.047-30.625 17.109 0 34.219 4.18 49.664 12.492l58.266-58.258c-23.477-30.648-39.305-67.438-44.641-107.5h-82.273c-12.953 43.133-53.008 74.656-100.305 74.656-57.734 0-104.711-46.977-104.711-104.719s46.977-104.711 104.719-104.711c47.289 0 87.344 31.523 100.297 74.656h82.281c5.328-40.070 21.164-76.852 44.641-107.5l-58.227-58.227c-15.086 8.164-32.063 12.508-49.703 12.508-27.969 0-54.266-10.891-74.039-30.672-19.781-19.781-30.672-46.078-30.672-74.047s10.891-54.266 30.672-74.047c20.414-20.414 47.227-30.617 74.039-30.617 26.82 0 53.633 10.211 74.047 30.617 19.781 19.781 30.672 46.078 30.672 74.047 0 17.641-4.344 34.609-12.5 49.703l58.219 58.227c30.656-23.469 67.438-39.305 107.5-44.633v-82.281c-43.133-12.953-74.656-53.008-74.656-100.297 0-57.742 46.977-104.719 104.719-104.719s104.711 46.977 104.711 104.719c0 47.297-31.523 87.344-74.656 100.297v82.281c40.070 5.336 76.852 21.172 107.5 44.641l58.219-58.227c-8.156-15.086-12.5-32.063-12.5-49.703 0-27.969 10.891-54.266 30.672-74.039 19.781-19.781 46.078-30.672 74.047-30.672s54.266 10.891 74.047 30.672c19.773 19.773 30.672 46.070 30.672 74.039s-10.898 54.273-30.672 74.047c-33.445 33.445-84.055 39.477-123.719 18.133l-58.258 58.258c23.469 30.656 39.305 67.438 44.633 107.5h82.281c12.953-43.133 53.008-74.656 100.297-74.656 57.742 0 104.719 46.977 104.719 104.719s-46.977 104.711-104.719 104.711zM512 281.414c-91.852 0-166.586 74.734-166.586 166.586s74.734 166.586 166.586 166.586 166.586-74.734 166.586-166.586-74.734-166.586-166.586-166.586zM768.453 767.531c8.695 8.695 20.117 13.047 31.539 13.047s22.844-4.352 31.531-13.047c8.43-8.422 13.063-19.625 13.063-31.531 0-11.914-4.633-23.109-13.063-31.539-8.422-8.422-19.617-13.063-31.531-13.063s-23.117 4.641-31.539 13.063c-8.422 8.43-13.063 19.625-13.063 31.539 0 11.906 4.641 23.109 13.063 31.531zM467.398 855.281c0 24.594 20 44.602 44.594 44.602s44.602-20.008 44.602-44.602c0-24.586-20.008-44.594-44.602-44.594s-44.594 20.008-44.594 44.594zM192.469 704.453c-8.43 8.422-13.063 19.625-13.063 31.539 0 11.906 4.633 23.109 13.063 31.531 8.422 8.422 19.617 13.063 31.531 13.063s23.109-4.633 31.539-13.063c8.422-8.422 13.063-19.625 13.063-31.531 0-11.914-4.641-23.117-13.063-31.539-17.391-17.391-45.68-17.391-63.070 0zM104.719 403.398c-24.594 0-44.602 20-44.602 44.594s20.008 44.602 44.602 44.602c24.586 0 44.594-20.008 44.594-44.602s-20.008-44.594-44.594-44.594zM255.547 128.469c-17.391-17.391-45.68-17.391-63.070 0-8.43 8.422-13.063 19.625-13.063 31.531 0 11.914 4.633 23.109 13.063 31.539 8.422 8.422 19.617 13.063 31.531 13.063s23.117-4.641 31.539-13.063c8.422-8.43 13.063-19.625 13.063-31.539 0-11.906-4.641-23.109-13.063-31.531zM556.602 40.719c0-24.594-20-44.602-44.594-44.602s-44.602 20.008-44.602 44.602c0 24.586 20.008 44.594 44.602 44.594s44.594-20.008 44.594-44.594zM800 204.586c11.422 0 22.844-4.344 31.531-13.039 8.43-8.422 13.063-19.625 13.063-31.539 0-11.906-4.633-23.109-13.063-31.531-8.422-8.422-19.617-13.063-31.531-13.063s-23.109 4.633-31.539 13.063c-8.422 8.422-13.063 19.625-13.063 31.531 0 11.914 4.641 23.117 13.063 31.539 8.695 8.695 20.117 13.039 31.539 13.039zM919.281 403.406c-24.586 0-44.594 20.008-44.594 44.602s20.008 44.594 44.594 44.594c24.594 0 44.602-20.008 44.602-44.594 0-24.594-20.008-44.602-44.602-44.602z" />
<glyph unicode="&#xe91e;" glyph-name="promotion" d="M1019.906 542.93c0 76.359-54.68 140.164-126.937 154.375v232.281c0 9.992-4.906 19.344-13.133 25.023-8.219 5.68-18.703 6.961-28.047 3.422l-521.82-197.453h-169c-85.453 0-154.969-69.516-154.969-154.961v-125.383c0-83.633 66.609-151.961 149.555-154.828v-358.992c0-16.797 13.617-30.414 30.422-30.414h149.555c16.797 0 30.414 13.617 30.414 30.414v192.625h54.57c38.297 0 69.453 31.156 69.453 69.453v36.234l361.82-136.906c3.484-1.32 7.133-1.969 10.758-1.969 6.094 0 12.141 1.828 17.289 5.391 8.227 5.68 13.133 15.031 13.133 25.023v232.281c72.258 14.211 126.937 78.023 126.937 154.383zM365.945 709.149l297.797 112.687v-557.82l-297.797 112.687zM66.836 480.235v125.383c0 51.906 42.227 94.133 94.133 94.133h144.148v-313.648h-144.148c-51.906 0-94.133 42.234-94.133 94.133zM305.117-3.163h-88.726v328.437h88.726zM429.133 228.493c0-4.75-3.867-8.625-8.617-8.625h-54.57v91.789l63.187-23.906zM832.133 200.298l-107.555 40.703v603.851l107.555 40.703zM892.968 451.344v183.164c38.359-12.773 66.102-48.984 66.102-91.578 0-42.602-27.742-78.812-66.102-91.586z" />
<glyph unicode="&#xe91f;" glyph-name="grow-up-1" d="M513.156 642.031h-41c-16.758 0-30.344-13.586-30.344-30.344 0-16.766 13.586-30.352 30.344-30.352h10.648v-8.242c0-16.758 13.586-30.344 30.352-30.344 16.758 0 30.344 13.586 30.344 30.344v15.406c24.203 12.039 41 38 41 68.031 0 41.461-32.008 75.195-71.344 75.195-5.672 0-10.648 6.773-10.648 14.5 0 7.719 4.977 14.492 10.648 14.492h40.992c16.758 0 30.352 13.594 30.352 30.352s-13.594 30.352-30.352 30.352h-10.648v8.234c0 16.766-13.586 30.352-30.344 30.352-16.766 0-30.352-13.586-30.352-30.352v-15.398c-24.203-12.047-40.992-38-40.992-68.031 0-41.461 32-75.195 71.344-75.195 5.672 0 10.641-6.773 10.641-14.5s-4.977-14.5-10.641-14.5zM768.079 327.28h-129.141c-35.938 0-69.047-12.266-95.438-32.781v148.032c129.461 15.078 230.274 125.406 230.274 258.844 0 143.711-116.914 260.626-260.618 260.626-143.711 0-260.626-116.914-260.626-260.626 0-133.438 100.813-243.758 230.274-258.844v-137.407c-20.805 14.281-46.149 22.164-74.86 22.164h-149.375c-16.766 0-30.352-13.594-30.352-30.352 0-85.906 69.883-155.789 155.789-155.789h98.797v-142.453h-97.633c-16.758 0-30.352-13.586-30.352-30.344s13.594-30.352 30.352-30.352h255.961c16.766 0 30.352 13.594 30.352 30.352s-13.586 30.344-30.352 30.344h-97.633v142.453h99.141c85.906 0 155.789 69.883 155.789 155.789 0 16.758-13.586 30.344-30.352 30.344zM384.008 201.842c-41.828 0-77.43 27.141-90.125 64.742h114.063c48.641 0 65.867-35.688 71.828-64.742zM513.156 901.305c110.235 0 199.922-89.688 199.922-199.93 0-110.235-89.688-199.922-199.922-199.922-110.242 0-199.93 89.688-199.93 199.922 0 110.242 89.688 199.93 199.93 199.93zM642.641 201.842h-93.828c12.688 37.602 48.297 64.742 90.125 64.742h93.828c-12.695-37.602-48.297-64.742-90.125-64.742zM916.040 588.226l-62.734 22.836c-15.75 5.727-33.172-2.391-38.899-18.141-5.734-15.75 2.383-33.172 18.141-38.899l62.734-22.836c3.43-1.25 6.93-1.836 10.375-1.836 12.398 0 24.039 7.648 28.523 19.977 5.734 15.75-2.391 33.164-18.141 38.899zM930.641 731.726h-66.766c-16.758 0-30.352-13.586-30.352-30.352 0-16.758 13.594-30.344 30.352-30.344h66.766c16.758 0 30.352 13.586 30.352 30.344 0 16.766-13.594 30.352-30.352 30.352zM842.923 789.859c3.445 0 6.953 0.586 10.383 1.836l62.734 22.836c15.75 5.734 23.875 23.148 18.141 38.899s-23.141 23.875-38.899 18.141l-62.734-22.836c-15.758-5.734-23.875-23.148-18.141-38.899 4.484-12.328 16.117-19.977 28.516-19.977zM194.445 848.734l-62.734 22.836c-15.75 5.727-33.172-2.391-38.899-18.141-5.734-15.75 2.383-33.164 18.133-38.899l62.742-22.836c3.422-1.25 6.93-1.836 10.375-1.836 12.391 0 24.031 7.648 28.516 19.977 5.742 15.75-2.383 33.164-18.133 38.899zM163.109 671.031c16.758 0 30.352 13.586 30.352 30.344 0 16.766-13.594 30.352-30.352 30.352h-66.766c-16.758 0-30.344-13.586-30.344-30.352 0-16.758 13.586-30.344 30.344-30.344zM173.687 611.062l-62.734-22.836c-15.758-5.734-23.875-23.148-18.141-38.899 4.484-12.328 16.125-19.977 28.516-19.977 3.453 0 6.953 0.586 10.383 1.836l62.734 22.836c15.75 5.727 23.867 23.141 18.141 38.899-5.734 15.75-23.156 23.867-38.899 18.141z" />
<glyph unicode="&#xe920;" glyph-name="international" d="M993.602 922h-963.203c-16.789 0-30.398-13.609-30.398-30.398v-888.484c0-16.781 13.609-30.391 30.398-30.391h963.203c16.789 0 30.398 13.609 30.398 30.391v888.484c0 16.789-13.609 30.398-30.398 30.398zM60.789 861.211h902.422v-124.203h-902.422zM963.211 33.516h-902.422v642.695h902.422zM899.188 829.5c-15.898 0-31.125-13.977-30.391-30.391 0.734-16.469 13.352-30.398 30.391-30.398 15.906 0 31.133 13.984 30.398 30.398-0.734 16.469-13.352 30.391-30.398 30.391zM803.758 829.5c-15.898 0-31.133-13.977-30.398-30.391 0.742-16.469 13.359-30.398 30.398-30.398 15.898 0 31.133 13.984 30.391 30.398-0.734 16.469-13.352 30.391-30.391 30.391zM708.32 829.5c-15.898 0-31.133-13.977-30.391-30.391 0.734-16.469 13.352-30.398 30.391-30.398 15.898 0 31.133 13.984 30.398 30.398-0.742 16.469-13.359 30.391-30.398 30.391zM512 91.437c145.258 0 263.43 118.172 263.43 263.43s-118.172 263.43-263.43 263.43-263.43-118.172-263.43-263.43 118.172-263.43 263.43-263.43zM311.641 324.469h75.516c2.766-54.711 12.93-105.672 29.359-145.883 0.438-1.063 0.883-2.063 1.32-3.102-55.883 29.445-96.414 84.234-106.195 148.984zM512 557.508c9.164 0 25.352-15.445 39.211-49.359 13.398-32.789 22.086-76.414 24.75-122.883h-127.922c2.664 46.469 11.352 90.094 24.75 122.883 13.859 33.914 30.047 49.359 39.211 49.359zM575.961 324.469c-2.664-46.469-11.352-90.094-24.75-122.883-13.859-33.914-30.039-49.359-39.211-49.359s-25.352 15.445-39.211 49.359c-13.398 32.789-22.086 76.414-24.75 122.883zM606.164 175.484c0.438 1.031 0.883 2.039 1.32 3.102 16.43 40.211 26.594 91.172 29.359 145.883h75.516c-9.781-64.75-50.313-119.539-106.195-148.984zM712.359 385.266h-75.516c-2.766 54.711-12.93 105.672-29.359 145.883-0.438 1.063-0.883 2.063-1.32 3.102 55.883-29.453 96.414-84.242 106.195-148.984zM417.836 534.25c-0.438-1.039-0.883-2.039-1.32-3.102-16.43-40.211-26.594-91.172-29.359-145.883h-75.516c9.781 64.742 50.313 119.531 106.195 148.984z" />
<glyph unicode="&#xe921;" glyph-name="commentary" d="M1008.588 77.984c-0.992 0.563-92.867 52.695-158.102 124.774 46.141 73.297 70.422 157.43 70.422 244.789 0 122.992-47.899 238.625-134.867 325.594-86.969 86.961-202.602 134.86-325.587 134.86-122.992 0-238.625-47.899-325.587-134.86-86.969-86.969-134.867-202.602-134.867-325.594 0-122.985 47.899-238.618 134.867-325.587 86.961-86.969 202.594-134.86 325.587-134.86 78.5 0 155.375 19.938 223.5 57.805 134.258-74.641 310.547-24.555 318.282-22.297 11.68 3.414 20.18 13.492 21.563 25.578 1.391 12.094-4.602 23.828-15.211 29.797zM700.736 105.359c-9.758 6.375-22.32 6.563-32.273 0.492-62.484-38.125-134.414-58.281-208.008-58.281-220.547 0-399.985 179.43-399.985 399.977 0 220.555 179.438 399.985 399.985 399.985s399.977-179.43 399.977-399.985c0-82.766-25.070-162.196-72.516-229.696-7.758-11.039-7.266-25.891 1.219-36.383 37.539-46.477 85.977-86.070 124.547-113.774-60.172-6.563-146.696-5.578-212.946 37.664zM665.431 343.383h-409.954c-16.703 0-30.234-13.539-30.234-30.234s13.531-30.234 30.234-30.234h409.954c16.695 0 30.234 13.539 30.234 30.234s-13.539 30.234-30.234 30.234zM665.431 477.781h-409.954c-16.703 0-30.234-13.539-30.234-30.242 0-16.695 13.531-30.234 30.234-30.234h409.954c16.695 0 30.234 13.539 30.234 30.234 0 16.703-13.539 30.242-30.234 30.242zM665.431 612.172h-409.954c-16.703 0-30.234-13.539-30.234-30.234 0-16.703 13.531-30.234 30.234-30.234h409.954c16.695 0 30.234 13.531 30.234 30.234 0 16.695-13.539 30.234-30.234 30.234z" />
<glyph unicode="&#xe922;" glyph-name="stairs" d="M513.156 759.945h41.008c16.766 0 30.352 13.594 30.352 30.359s-13.586 30.352-30.352 30.352h-10.648v8.25c0 16.766-13.594 30.352-30.359 30.352s-30.352-13.586-30.352-30.352v-15.406c-24.211-12.047-41.008-38.016-41.008-68.047 0-41.477 32.008-75.219 71.359-75.219 5.672 0 10.648-6.773 10.648-14.5s-4.977-14.5-10.648-14.5h-41c-16.766 0-30.359-13.594-30.359-30.359s13.594-30.352 30.359-30.352h10.648v-8.242c0-16.766 13.586-30.359 30.352-30.359s30.359 13.594 30.359 30.359v15.406c24.203 12.039 41 38.008 41 68.047 0 41.469-32.008 75.211-71.359 75.211-5.672 0-10.648 6.781-10.648 14.508 0 7.719 4.977 14.492 10.648 14.492zM776.352 782.211c-6.641 0-13.25-0.391-19.813-1.18-32.648 105.359-130.484 178.969-243.383 178.969s-210.734-73.609-243.383-178.969c-6.563 0.789-13.172 1.18-19.813 1.18-91.516 0-165.961-74.445-165.961-165.961s74.445-165.961 165.961-165.961h108.266v-483.93c0-16.766 13.594-30.359 30.359-30.359s30.352 13.594 30.352 30.359v77.555h188.438v-77.555c0-16.766 13.586-30.359 30.352-30.359s30.359 13.594 30.359 30.359v483.93h108.266c91.516 0 165.961 74.453 165.961 165.961 0 91.516-74.445 165.961-165.961 165.961zM607.375 240.969h-188.438v75.633h188.438zM418.938 104.625v75.633h188.438v-75.633zM607.375 377.312h-188.438v72.977h188.438zM776.352 511h-526.391c-58.031 0-105.25 47.219-105.25 105.25 0 58.039 47.219 105.25 105.25 105.25 11.156 0 22.188-1.758 32.797-5.234 8.344-2.734 17.469-1.719 25.008 2.781 7.547 4.508 12.766 12.047 14.32 20.695 16.609 92.445 96.969 159.547 191.070 159.547s174.461-67.102 191.070-159.547c1.555-8.648 6.773-16.195 14.32-20.695 7.539-4.5 16.664-5.516 25.008-2.789 10.609 3.484 21.641 5.242 32.797 5.242 58.031 0 105.25-47.211 105.25-105.25 0-58.031-47.219-105.25-105.25-105.25z" />
<glyph unicode="&#xe923;" glyph-name="like" d="M831.181 631.821h-166.164c5.141 15.125 10.75 33.281 15.633 52.922 18.516 74.5 17.297 132.282-3.617 171.75-15.711 29.648-42.5 48.766-77.461 55.289-40.313 7.508-75.352-4.047-104.149-34.352-22.617-23.813-39.227-56.328-56.805-90.758-34.734-68.024-70.641-138.344-156.024-154.844l-253.876-0.008c-16.969 0-30.719-13.75-30.719-30.719v-588.993c0-16.969 13.75-30.719 30.719-30.719h802.463c105.219 0 190.821 85.602 190.821 190.821v268.79c0 105.219-85.602 190.821-190.821 190.821zM59.43 570.391h153.469v-527.571h-153.469zM960.572 172.21c0-71.344-58.047-129.391-129.391-129.391h-556.845v527.571h11.086c1.813 0 3.617 0.164 5.398 0.477 117.274 20.945 164.539 113.5 202.516 187.868 36.563 71.602 55.391 100.047 94.977 92.649 16.57-3.086 27.516-10.594 34.43-23.633 25.219-47.508-5.219-156.688-30.328-214.352-4.141-9.492-3.227-20.438 2.453-29.117 5.672-8.664 15.336-13.891 25.695-13.891h210.618c71.344 0 129.391-58.047 129.391-129.391zM136.164 236.093c-16.961 0-30.719-13.758-30.719-30.719v-83.813c0-16.961 13.758-30.719 30.719-30.719s30.719 13.758 30.719 30.719v83.813c0 16.961-13.758 30.719-30.719 30.719z" />
<glyph unicode="&#xe924;" glyph-name="conection" d="M936.507 162.4c14.922 17.984 23.898 41.062 23.898 66.203 0 46.695-30.977 86.289-73.461 99.32v45.148c0 48.695-39.617 88.32-88.312 88.32h-255.851v75.133c103.008 14.797 182.437 103.617 182.437 210.648 0 117.351-95.476 212.828-212.828 212.828s-212.828-95.476-212.828-212.828c0-107.023 79.422-195.836 182.414-210.64v-75.14h-255.851c-48.695 0-88.312-39.625-88.312-88.32v-45.148c-42.492-13.031-73.476-52.617-73.476-99.32 0-25.141 8.984-48.219 23.906-66.211-42.164-26.625-70.242-73.609-70.242-127.054v-68.93c0-16.797 13.617-30.406 30.406-30.406h239.601c16.797 0 30.406 13.609 30.406 30.406v68.93c0 53.445-28.086 100.429-70.242 127.062 14.914 17.984 23.898 41.062 23.898 66.203 0 46.695-30.977 86.281-73.453 99.32v45.148c0 15.172 12.336 27.508 27.508 27.508h255.851v-72.656c-42.492-13.031-73.469-52.625-73.469-99.32 0-25.141 8.984-48.219 23.898-66.211-42.156-26.625-70.234-73.609-70.234-127.054v-68.937c0-16.789 13.609-30.398 30.398-30.398h239.609c16.789 0 30.406 13.609 30.406 30.398v68.937c0 53.445-28.086 100.429-70.25 127.062 14.922 17.984 23.898 41.062 23.898 66.203 0 46.695-30.977 86.281-73.453 99.32v72.656h255.851c15.164 0 27.5-12.336 27.5-27.508v-45.148c-42.476-13.031-73.461-52.625-73.461-99.32 0-25.141 8.984-48.219 23.906-66.211-42.164-26.625-70.242-73.609-70.242-127.054v-68.937c0-16.789 13.609-30.398 30.406-30.398h239.601c16.789 0 30.406 13.609 30.406 30.398v68.937c0 53.445-28.078 100.429-70.242 127.062zM512.391 898.742c10.352-6.531 31.727-47.523 36.516-121.164h-73.031c4.789 73.64 26.164 114.633 36.516 121.164zM548.906 716.766c-4.789-73.64-26.164-114.633-36.516-121.164-10.352 6.531-31.726 47.523-36.523 121.164zM592.539 618.079c9.508 29.398 15.18 63.82 17.25 98.687h51.562c-8.469-41.547-33.953-76.961-68.812-98.687zM661.351 777.578h-51.562c-2.070 34.867-7.742 69.297-17.25 98.687 34.859-21.727 60.344-57.141 68.812-98.687zM432.242 876.266c-9.508-29.398-15.18-63.82-17.25-98.687h-51.562c8.469 41.547 33.945 76.961 68.812 98.687zM363.43 716.766h51.562c2.070-34.867 7.742-69.297 17.25-98.687-34.867 21.727-60.344 57.141-68.812 98.687zM257.61-3.193h-178.804v38.531c0 49.297 40.109 89.398 89.406 89.398 49.289 0 89.398-40.101 89.398-89.398zM168.204 185.541c-23.742 0-43.055 19.32-43.055 43.062s19.312 43.055 43.055 43.055c23.742 0 43.062-19.312 43.062-43.055s-19.32-43.062-43.062-43.062zM601.773-3.193h-178.797v38.531c0 49.297 40.109 89.398 89.398 89.398 49.297 0 89.398-40.101 89.398-89.398zM512.375 185.541c-23.75 0-43.062 19.32-43.062 43.062s19.312 43.055 43.062 43.055c23.734 0 43.055-19.312 43.055-43.055s-19.312-43.062-43.055-43.062zM945.944-3.193h-178.797v38.531c0 49.297 40.101 89.398 89.398 89.398s89.398-40.101 89.398-89.398zM856.538 271.658c23.742 0 43.062-19.312 43.062-43.055s-19.32-43.062-43.062-43.062c-23.742 0-43.055 19.32-43.055 43.062s19.312 43.055 43.055 43.055z" />
<glyph unicode="&#xe925;" glyph-name="world" d="M834.485 448.085c0 176.797-143.828 320.626-320.626 320.626-176.789 0-320.618-143.828-320.618-320.626 0-176.789 143.828-320.618 320.618-320.618 176.797 0 320.626 143.828 320.626 320.618zM467.562 254.874c-16.258 43.672-26.25 100.141-28.82 161.485h150.242c-2.578-61.344-12.563-117.813-28.82-161.485-18.828-50.594-38.524-63.953-46.305-63.953s-27.469 13.359-46.297 63.953zM513.859 705.257c7.781 0 27.477-13.367 46.305-63.961 16.258-43.672 26.25-100.133 28.82-161.485h-150.242c2.578 61.352 12.563 117.813 28.82 161.485 18.828 50.594 38.524 63.961 46.297 63.961zM609.938 209.546c25.117 54.297 39.469 129.492 42.547 206.813h116.594c-11.625-94.024-74.188-172.469-159.141-206.813zM769.079 479.812h-116.594c-3.086 77.32-17.43 152.516-42.555 206.813 84.961-34.336 147.524-112.789 159.149-206.813zM417.789 686.625c-25.117-54.289-39.469-129.492-42.547-206.813h-116.594c11.625 94.024 74.195 172.477 159.141 206.813zM258.656 416.358h116.586c3.086-77.313 17.43-152.516 42.555-206.813-84.953 34.344-147.524 112.789-159.141 206.813zM941.024 730.382c10.781 16.461 17.078 36.109 17.078 57.219 0 57.742-46.984 104.727-104.727 104.727-57.75 0-104.735-46.984-104.735-104.727 0-57.75 46.984-104.735 104.735-104.735 13.414 0 26.234 2.563 38.039 7.18 111.235-173.5 91.094-407.462-60.477-559.032-127.797-127.805-318.586-166.43-486.048-98.414-16.242 6.594-34.742-1.227-41.336-17.461s1.227-34.742 17.461-41.336c62.633-25.438 128.125-37.805 193.008-37.805 133.133 0 263.711 52.070 361.782 150.141 96.68 96.68 149.922 225.219 149.922 361.946 0 101.914-29.594 199.282-84.703 282.297zM812.102 787.601c0 22.758 18.516 41.266 41.274 41.266s41.274-18.508 41.274-41.266c0-22.766-18.516-41.281-41.274-41.281s-41.274 18.516-41.274 41.281zM174.429 213.382c-13.453 0-26.313-2.578-38.141-7.219-111.203 173.5-91.063 407.438 60.5 559.001 123.883 123.875 310.032 164.321 474.22 103.024 16.414-6.133 34.695 2.211 40.82 18.625 6.133 16.414-2.211 34.695-18.625 40.82-90.727 33.867-188.922 41.328-283.977 21.57-97.57-20.289-186.547-68.414-257.305-139.172-96.68-96.68-149.922-225.219-149.922-361.946 0-101.922 29.602-199.289 84.719-282.313-10.742-16.438-17.008-36.055-17.008-57.117 0-27.969 10.891-54.274 30.672-74.055s46.078-30.672 74.055-30.672c57.742 0 104.727 46.977 104.727 104.727s-46.984 104.727-104.735 104.727zM174.429 67.381c-11.023 0-21.391 4.289-29.18 12.086-7.797 7.797-12.094 18.164-12.094 29.188 0 22.758 18.516 41.274 41.274 41.274s41.274-18.516 41.274-41.274-18.516-41.274-41.274-41.274z" />
<glyph unicode="&#xe926;" glyph-name="earn-money-1" d="M993.313 322.555h-290.188v130.438c0 16.945-13.742 30.688-30.688 30.688h-320.875c-16.945 0-30.688-13.742-30.688-30.688v-224.008h-290.188c-16.945 0-30.688-13.742-30.688-30.695v-227.164c0-16.953 13.742-30.688 30.688-30.688h962.625c16.945 0 30.688 13.734 30.688 30.688v320.734c0 16.953-13.742 30.695-30.688 30.695zM61.383 167.602h259.492v-165.789h-259.492zM382.25 198.289v224.016h259.5v-420.492h-259.5zM962.617 1.812h-259.492v259.359h259.492zM512 676.187h-52.25c-16.945 0-30.688-13.742-30.688-30.695 0-16.945 13.742-30.688 30.688-30.688h21.563v-18.492c0-16.945 13.742-30.688 30.688-30.688s30.688 13.742 30.688 30.688v24.75c30.586 12.953 52.25 44.633 52.25 81.594 0 48.438-37.203 87.844-82.938 87.844-11.891 0-21.563 11.875-21.563 26.469s9.672 26.469 21.563 26.469h52.25c16.945 0 30.688 13.742 30.688 30.695 0 16.945-13.742 30.688-30.688 30.688h-21.563v18.492c0 16.945-13.742 30.688-30.688 30.688s-30.688-13.742-30.688-30.688v-24.758c-30.586-12.945-52.25-44.625-52.25-81.586 0-48.438 37.203-87.844 82.938-87.844 11.891 0 21.563-11.875 21.563-26.469 0-14.602-9.672-26.469-21.563-26.469z" />
<glyph unicode="&#xe927;" glyph-name="conversation" d="M1008.588 77.992c-0.992 0.555-92.867 52.688-158.102 124.766 46.141 73.297 70.422 157.438 70.422 244.789 0 123-47.899 238.625-134.867 325.594s-202.602 134.86-325.587 134.86c-122.992 0-238.625-47.899-325.587-134.86-86.969-86.969-134.867-202.594-134.867-325.587s47.899-238.625 134.867-325.587c86.961-86.969 202.594-134.867 325.587-134.867 78.5 0 155.375 19.938 223.5 57.813 134.25-74.649 310.54-24.555 318.282-22.297 11.68 3.406 20.18 13.484 21.563 25.57 1.391 12.094-4.602 23.836-15.211 29.805zM700.736 105.359c-9.758 6.375-22.32 6.563-32.273 0.492-62.484-38.125-134.414-58.281-208.008-58.281-220.547 0-399.985 179.438-399.985 399.985s179.438 399.977 399.985 399.977c220.547 0 399.977-179.43 399.977-399.977 0-82.774-25.070-162.203-72.516-229.704-7.758-11.039-7.266-25.883 1.219-36.383 37.539-46.477 85.977-86.070 124.547-113.774-60.172-6.563-146.696-5.578-212.946 37.664zM459.938 723.032c-151.899 0-275.477-123.578-275.477-275.477s123.578-275.485 275.477-275.485 275.477 123.578 275.477 275.485c0 151.899-123.578 275.477-275.477 275.477zM459.938 232.547c-118.555 0-215.008 96.453-215.008 215.008 0 108.297 80.477 198.149 184.774 212.883v-212.883c0-16.703 13.531-30.242 30.234-30.242h212.891c-14.742-104.289-104.602-184.766-212.891-184.766zM490.173 477.789v182.649c94.406-13.344 169.305-88.242 182.657-182.649z" />
<glyph unicode="&#xe928;" glyph-name="notes" d="M687.539 916h-469.836c-8.18 0-16.023-3.25-21.813-9.031l-186.859-186.859c-5.781-5.789-9.031-13.633-9.031-21.813v-685.563c0-17.039 13.813-30.844 30.844-30.844h656.695c17.039 0 30.844 13.805 30.844 30.844v872.422c0 17.031-13.805 30.844-30.844 30.844zM186.859 810.695v-81.555h-81.555zM656.695 43.57h-595.008v623.883h156.016c17.031 0 30.844 13.813 30.844 30.844v156.016h408.148zM1019.602 752.977l-88.828 148.047c-5.57 9.289-15.609 14.977-26.445 14.977s-20.875-5.688-26.445-14.977l-88.828-148.047c-2.883-4.797-4.398-10.281-4.398-15.875v-681.664c0-40.555 32.992-73.555 73.555-73.555h92.234c40.555 0 73.555 33 73.555 73.555v681.672c0 5.586-1.523 11.070-4.398 15.867zM846.344 706.266h115.969v-538.961h-115.969zM904.328 825.203l34.352-57.258h-68.703zM950.445 43.57h-92.234c-6.547 0-11.867 5.328-11.867 11.867v50.172h115.969v-50.172c0-6.539-5.32-11.867-11.867-11.867zM357.609 593.742h199.859c17.039 0 30.844 13.813 30.844 30.844v112.523c0 17.031-13.805 30.844-30.844 30.844h-199.859c-17.039 0-30.844-13.813-30.844-30.844v-112.523c0-17.031 13.805-30.844 30.844-30.844zM388.453 706.266h138.172v-50.836h-138.172zM557.469 541h-399.727c-17.031 0-30.844-13.805-30.844-30.844 0-17.031 13.813-30.844 30.844-30.844h399.727c17.031 0 30.844 13.813 30.844 30.844 0 17.039-13.805 30.844-30.844 30.844zM557.469 432.297h-399.727c-17.031 0-30.844-13.813-30.844-30.844s13.813-30.844 30.844-30.844h399.727c17.031 0 30.844 13.813 30.844 30.844s-13.805 30.844-30.844 30.844zM557.469 323.594h-399.727c-17.031 0-30.844-13.813-30.844-30.844 0-17.039 13.813-30.844 30.844-30.844h399.727c17.031 0 30.844 13.805 30.844 30.844 0 17.031-13.805 30.844-30.844 30.844zM457.539 214.891h-299.797c-17.031 0-30.844-13.813-30.844-30.844 0-17.039 13.813-30.844 30.844-30.844h299.797c17.031 0 30.844 13.805 30.844 30.844 0 17.031-13.813 30.844-30.844 30.844z" />
<glyph unicode="&#xe929;" glyph-name="tag" d="M1025.992 536.555l-8.695 384.313c-0.375 16.648-13.773 30.047-30.422 30.422l-384.328 8.703c-8.469 0.195-16.703-3.102-22.719-9.109l-568.711-568.711c-12.156-12.156-12.156-31.875 0-44.031l393.023-393.023c5.836-5.836 13.758-9.117 22.008-9.117 8.258 0 16.18 3.281 22.016 9.117l102.516 102.516c0.008 0.008 0.008 0.008 0.008 0.016 0.008 0 0.008 0 0.008 0.008l466.18 466.172c6.016 6.016 9.313 14.227 9.117 22.727zM528.672 113.695l-348.984 348.984 316.102 316.094 348.984-348.984zM426.148 11.164l-348.984 348.992 58.492 58.492 348.992-348.984zM888.805 473.82l-348.992 348.984 74.633 74.633 341.273-7.727 7.719-341.258zM751.43 813.016c-35.164-35.172-35.164-92.391 0-127.563 17.586-17.586 40.688-26.375 63.781-26.375 23.102 0 46.195 8.789 63.781 26.375 17.039 17.039 26.422 39.688 26.422 63.781s-9.383 46.75-26.422 63.781c-35.172 35.164-92.391 35.164-127.563 0zM834.961 729.484c-10.891-10.891-28.609-10.891-39.5 0-10.883 10.891-10.883 28.609 0 39.5 5.445 5.438 12.602 8.164 19.75 8.164 7.156 0 14.305-2.727 19.75-8.164 5.281-5.281 8.18-12.297 8.18-19.75 0-7.461-2.906-14.477-8.18-19.75zM642.125 508.437l-11.82 11.828 9.836 9.836c12.156 12.156 12.156 31.867 0 44.031-12.156 12.156-31.875 12.156-44.031 0l-14.625-14.625c-28.93 10.836-63.797 3.883-88.086-20.406-32.547-32.555-33.977-84.094-3.18-114.891 3.563-3.563 4.141-8.141 4-11.359-0.25-5.594-2.797-11.086-7.18-15.461-4.375-4.375-9.867-6.93-15.469-7.18-3.203-0.133-7.789 0.43-11.352 4l-33.844 33.836c-12.156 12.164-31.867 12.164-44.031 0-12.156-12.156-12.156-31.867 0-44.031l11.828-11.82-9.836-9.836c-12.156-12.156-12.156-31.875 0-44.031 6.078-6.078 14.047-9.117 22.016-9.117 7.961 0 15.93 3.039 22.016 9.117l14.633 14.633c8.836-3.305 18.227-4.977 27.703-4.977 21.531 0 43.5 8.516 60.367 25.375 15.398 15.398 24.398 35.539 25.352 56.711 1 22.219-6.875 42.883-22.172 58.172-6.406 6.414-4.953 18.695 3.18 26.828s20.414 9.586 26.82 3.18l33.836-33.836c12.164-12.164 31.875-12.156 44.031 0 12.164 12.156 12.164 31.867 0.008 44.023z" />
<glyph unicode="&#xe92a;" glyph-name="calculator" d="M779.43 962h-534.251c-53.586 0-97.18-43.594-97.18-97.18v-829.642c0-53.578 43.594-97.18 97.18-97.18h534.251c53.578 0 97.172 43.602 97.172 97.18v829.642c0 53.586-43.594 97.18-97.172 97.18zM814.337 35.178c0-19.25-15.656-34.906-34.906-34.906h-534.251c-19.25 0-34.914 15.656-34.914 34.906v829.642c0 19.25 15.664 34.914 34.914 34.914h534.251c19.25 0 34.906-15.664 34.906-34.914zM720.938 837.461h-417.266c-17.195 0-31.133-13.938-31.133-31.133v-174.821c0-17.195 13.938-31.133 31.133-31.133h417.266c17.195 0 31.133 13.938 31.133 31.133v174.821c0 17.195-13.938 31.133-31.133 31.133zM689.797 662.64h-354.993v112.555h355.001v-112.555zM720.938 542.069h-417.266c-17.195 0-31.133-13.938-31.133-31.133v-417.266c0-17.195 13.938-31.133 31.133-31.133h417.266c17.195 0 31.133 13.938 31.133 31.133v417.266c0 17.195-13.938 31.133-31.133 31.133zM689.797 402.983h-76.82v76.82h76.82zM334.804 340.717h76.82v-76.82h-76.82zM473.891 340.717h76.82v-76.82h-76.82zM550.711 402.983h-76.82v76.82h76.82zM334.804 479.804h76.82v-76.82h-76.82zM334.804 201.623h76.82v-76.82h-76.82zM473.891 201.623h76.82v-76.82h-76.82zM689.797 124.803h-76.82v215.915h76.82z" />
<glyph unicode="&#xe92b;" glyph-name="key" d="M1013.185 721.587l-183.595 183.595c-11.766 11.766-30.836 11.766-42.594 0l-414.19-414.182c-33.485 14.742-69.977 22.5-107.665 22.5-71.391 0-138.509-27.805-188.985-78.282-104.211-104.211-104.211-273.767 0-377.979 50.407-50.407 117.524-78.164 188.985-78.164s138.579 27.758 188.985 78.164c50.485 50.485 78.282 117.594 78.282 188.993 0 37.688-7.75 74.18-22.492 107.665l131.969 131.969 67.789-67.782c5.883-5.883 13.586-8.82 21.297-8.82 7.703 0 15.414 2.938 21.297 8.82l94.508 94.508c5.641 5.648 8.82 13.313 8.82 21.297 0 7.992-3.172 15.649-8.82 21.297l-67.789 67.782 29.297 29.305 67.789-67.789c5.883-5.883 13.594-8.82 21.297-8.82s15.414 2.938 21.297 8.82l94.508 94.508c5.648 5.648 8.82 13.313 8.82 21.297s-3.164 15.656-8.813 21.297zM897.38 648.376l-46.492 46.492 51.914 51.914 46.492-46.492zM478.315 407.484c-7.367 9.703-15.422 18.969-24.188 27.727-8.758 8.766-18.031 16.828-27.727 24.195l381.893 381.885 51.914-51.914zM684.48 528.461l51.914 51.922 46.492-46.492-51.914-51.914zM472.174 246.225c0-55.297-21.539-107.29-60.641-146.391-39.031-39.031-91.016-60.532-146.391-60.532-55.367 0-107.36 21.5-146.391 60.532-80.719 80.719-80.719 212.064 0 292.791 39.102 39.102 91.086 60.633 146.391 60.633s107.29-21.531 146.391-60.633 60.641-91.094 60.641-146.399zM265.142 379.836c-35.688 0-69.243-13.899-94.477-39.133-52.094-52.086-52.094-136.852 0-188.954 25.203-25.203 58.758-39.078 94.477-39.078h0.008c35.719 0 69.266 13.875 94.469 39.078 25.235 25.235 39.133 58.789 39.133 94.485 0 35.688-13.899 69.235-39.133 94.477-25.235 25.235-58.789 39.125-94.477 39.125zM265.15 172.905s0 0-0.008 0c-19.633 0-38.055 7.617-51.883 21.438-28.61 28.61-28.61 75.164 0 103.774 13.859 13.859 32.281 21.484 51.883 21.484s38.024-7.625 51.883-21.484c13.859-13.859 21.492-32.289 21.492-51.883 0-19.602-7.633-38.031-21.492-51.891-13.828-13.828-32.25-21.438-51.875-21.438z" />
<glyph unicode="&#xe92c;" glyph-name="search" d="M547.016 776.805c-100.344 100.351-263.632 100.359-363.991 0-48.617-48.609-75.39-113.242-75.39-181.992s26.773-133.39 75.39-182c50.172-50.18 116.086-75.265 181.992-75.265 65.914 0 131.828 25.094 182 75.265 100.351 100.351 100.351 263.64 0 363.991zM504.711 455.118c-77.023-77.031-202.359-77.023-279.382 0-37.312 37.312-57.867 86.922-57.867 139.695 0 52.766 20.555 102.375 57.867 139.687 38.516 38.516 89.101 57.773 139.695 57.773 50.586 0 101.172-19.258 139.687-57.773 77.023-77.023 77.023-202.351 0-279.382zM991.937 121.877l-151.789 151.797c-35.117 35.117-88.445 41.156-129.859 18.172l-66.75 66.758c56.086 65.906 86.672 148.703 86.672 236.21 0 97.547-37.984 189.25-106.961 258.226s-160.687 106.961-258.234 106.961c-97.547 0-189.25-37.984-258.226-106.961-142.383-142.39-142.383-374.070 0-516.452 71.195-71.195 164.711-106.797 258.226-106.797 84.164 0 168.32 28.852 236.21 86.508l66.758-66.758c-22.984-41.414-16.945-94.734 18.172-129.851l151.797-151.797c20.57-20.57 47.906-31.898 76.992-31.891 29.086 0 56.43 11.32 76.992 31.891 42.453 42.453 42.453 111.531 0 153.984zM149.094 378.884c-119.054 119.062-119.054 312.788 0 431.851 57.68 57.672 134.359 89.437 215.921 89.437 81.57 0 158.25-31.766 215.929-89.437 57.672-57.68 89.437-134.359 89.437-215.921s-31.766-158.25-89.437-215.929c-59.539-59.531-137.718-89.297-215.921-89.289-78.195 0.008-156.406 29.773-215.929 89.289zM949.632 10.197c-19.125-19.125-50.242-19.125-69.375 0l-151.789 151.797c-19.133 19.125-19.133 50.242 0 69.375 9.562 9.562 22.125 14.344 34.687 14.344s25.125-4.781 34.687-14.344l151.797-151.797c19.125-19.125 19.125-50.25-0.008-69.375z" />
<glyph unicode="&#xe92d;" glyph-name="idea" d="M780.515 848.172c-70.117 70.906-163.617 110.609-263.265 111.804-1.523 0.016-3.031 0.023-4.555 0.023-204.882 0-373.421-165.328-376.648-370.616-0.836-53.476 9.305-105.312 30.164-154.062 20.117-47.016 49.133-88.836 86.258-124.312 38.945-37.211 61.281-88.586 61.281-140.937v-88.805c0-80.101 65.172-145.265 145.273-145.265h107.304c80.101 0 145.273 65.164 145.273 145.265v88.836c0 52.648 21.914 103.609 60.133 139.82 36.75 34.828 65.664 75.89 85.945 122.054 21.008 47.812 31.656 98.734 31.656 151.359 0.008 99.812-38.641 193.867-108.82 264.835zM650.078 81.267c0-46.18-37.57-83.75-83.75-83.75h-107.304c-46.18 0-83.75 37.57-83.75 83.75v55.891h274.804zM729.421 354.579c-43.469-41.187-70.953-96.836-77.711-155.898h-278.101c-6.875 58.844-34.68 114.804-78.633 156.804-64.219 61.367-98.812 144.086-97.414 232.937 2.703 171.75 143.703 310.062 315.14 310.062 1.266 0 2.547-0.008 3.812-0.023 171.656-2.055 311.304-143.414 311.304-315.124 0-87.383-34.945-168.617-98.398-228.757zM512.672 679.766h67.969c16.984 0 30.758 13.773 30.758 30.758 0 16.992-13.773 30.766-30.758 30.766h-37.211v33.219c0 16.984-13.773 30.758-30.758 30.758-16.992 0-30.758-13.773-30.758-30.758v-38.476c-39.422-13.797-67.976-53.336-67.976-99.859 0-57.961 44.289-105.117 98.734-105.117 20.516 0 37.211-19.555 37.211-43.594 0-24.047-16.695-43.601-37.211-43.601h-67.969c-16.992 0-30.766-13.773-30.766-30.758 0-16.992 13.773-30.758 30.766-30.758h37.211v-33.226c0-16.984 13.766-30.758 30.758-30.758 16.984 0 30.758 13.773 30.758 30.758v38.476c39.422 13.797 67.969 53.336 67.969 99.867 0 57.961-44.289 105.117-98.726 105.117-20.523 0-37.211 19.555-37.211 43.594s16.687 43.594 37.211 43.594z" />
<glyph unicode="&#xe92e;" glyph-name="share" d="M760.055 259.75c-43.547 0-83.102-17.313-112.227-45.383l-236.531 166.898c9.258 20.367 14.453 42.945 14.453 66.734 0 23.781-5.195 46.367-14.453 66.727l236.531 166.906c29.125-28.070 68.68-45.391 112.227-45.391 89.258 0 161.875 72.617 161.875 161.875 0 89.266-72.617 161.883-161.875 161.883s-161.875-72.617-161.875-161.875c0-23.789 5.195-46.367 14.445-66.734l-236.523-166.898c-29.125 28.070-68.68 45.383-112.227 45.383-89.258 0-161.875-72.617-161.875-161.875s72.617-161.875 161.875-161.875c43.547 0 83.102 17.313 112.227 45.383l236.523-166.898c-9.25-20.367-14.445-42.945-14.445-66.734 0-89.258 72.617-161.875 161.875-161.875s161.875 72.617 161.875 161.875-72.617 161.875-161.875 161.875zM760.055-3.047c-55.648 0-100.922 45.273-100.922 100.922s45.273 100.922 100.922 100.922c55.648 0 100.922-45.273 100.922-100.922s-45.273-100.922-100.922-100.922zM263.875 347.078c-55.648 0-100.922 45.273-100.922 100.922s45.273 100.922 100.922 100.922 100.922-45.273 100.922-100.922-45.273-100.922-100.922-100.922zM659.133 798.125c0 55.648 45.273 100.922 100.922 100.922s100.922-45.273 100.922-100.922-45.273-100.922-100.922-100.922c-55.648 0-100.922 45.273-100.922 100.922z" />
<glyph unicode="&#xe92f;" glyph-name="graph-1" d="M992 109.766h-20.531v708.234c0 17.672-14.328 32-32 32h-195.188c-17.672 0-32-14.328-32-32v-708.234h-70.68v558.906c0 17.672-14.328 32-32 32h-195.188c-17.672 0-32-14.328-32-32v-558.906h-70.68v409.57c0 17.672-14.328 32-32 32h-195.188c-17.672 0-32-14.328-32-32v-409.57h-20.547c-17.672 0-32-14.328-32-32s14.328-32 32-32h960c17.672 0 32 14.328 32 32s-14.328 32-32 32zM776.273 786h131.188v-676.234h-131.188zM446.414 109.766v526.906h131.188v-526.906zM116.547 487.336h131.188v-377.57h-131.188z" />
<glyph unicode="&#xe930;" glyph-name="calendar" d="M936.039 809.898h-121.844v17.641c0 46.57-37.891 84.461-84.461 84.461s-84.453-37.891-84.453-84.461v-17.641h-278.195v17.641c0 46.57-37.883 84.461-84.453 84.461-46.578 0-84.461-37.891-84.461-84.461v-17.641h-110.211c-48.5 0-87.961-39.461-87.961-87.961v-650.125c0-48.5 39.461-87.961 87.961-87.961h848.078c48.5 0 87.961 39.461 87.961 87.961v650.125c0 48.5-39.461 87.961-87.961 87.961zM729.734 850.687c12.758 0 23.141-10.383 23.141-23.141v-96.609c0-12.758-10.383-23.141-23.141-23.141s-23.141 10.383-23.141 23.141v96.602c0 12.766 10.383 23.148 23.141 23.148zM282.633 850.687c12.758 0 23.141-10.383 23.141-23.141v-96.609c0-12.758-10.383-23.141-23.141-23.141-12.766 0-23.148 10.383-23.148 23.141v96.602c0 12.766 10.383 23.148 23.148 23.148zM61.32 721.937c0 14.695 11.953 26.648 26.641 26.648h110.211v-17.648c0-46.57 37.883-84.453 84.461-84.453 46.57 0 84.453 37.883 84.453 84.453v17.648h278.195v-17.648c0-46.57 37.883-84.453 84.453-84.453s84.461 37.883 84.461 84.453v17.648h121.844c14.688 0 26.641-11.953 26.641-26.648v-101.656h-901.359zM962.68 71.812c0-14.688-11.953-26.641-26.641-26.641h-848.078c-14.688 0-26.641 11.953-26.641 26.641v487.148h901.359zM191.109 400.602h118.766c16.938 0 30.664 13.727 30.664 30.656s-13.727 30.656-30.664 30.656h-118.766c-16.938 0-30.664-13.727-30.664-30.656s13.727-30.656 30.664-30.656zM451.563 400.602h118.773c16.93 0 30.656 13.727 30.656 30.656s-13.727 30.656-30.656 30.656h-118.773c-16.93 0-30.656-13.727-30.656-30.656s13.727-30.656 30.656-30.656zM712.023 400.602h118.773c16.93 0 30.656 13.727 30.656 30.656s-13.727 30.656-30.656 30.656h-118.773c-16.93 0-30.656-13.727-30.656-30.656s13.727-30.656 30.656-30.656zM191.109 271.406h118.766c16.938 0 30.664 13.727 30.664 30.656 0 16.938-13.727 30.664-30.664 30.664h-118.766c-16.938 0-30.664-13.727-30.664-30.664 0-16.93 13.727-30.656 30.664-30.656zM451.563 271.406h118.773c16.93 0 30.656 13.727 30.656 30.656 0 16.938-13.727 30.664-30.656 30.664h-118.773c-16.93 0-30.656-13.727-30.656-30.664 0-16.93 13.727-30.656 30.656-30.656zM712.023 271.406h118.773c16.93 0 30.656 13.727 30.656 30.656 0 16.938-13.727 30.664-30.656 30.664h-118.773c-16.93 0-30.656-13.727-30.656-30.664 0-16.93 13.727-30.656 30.656-30.656zM191.109 142.219h118.766c16.938 0 30.664 13.727 30.664 30.656s-13.727 30.656-30.664 30.656h-118.766c-16.938 0-30.664-13.727-30.664-30.656s13.727-30.656 30.664-30.656zM451.563 142.219h118.773c16.93 0 30.656 13.727 30.656 30.656s-13.727 30.656-30.656 30.656h-118.773c-16.93 0-30.656-13.727-30.656-30.656s13.727-30.656 30.656-30.656zM712.023 142.219h118.773c16.93 0 30.656 13.727 30.656 30.656s-13.727 30.656-30.656 30.656h-118.773c-16.93 0-30.656-13.727-30.656-30.656s13.727-30.656 30.656-30.656z" />
<glyph unicode="&#xe931;" glyph-name="tools" d="M511.999 713.718c-146.523 0-265.726-119.203-265.726-265.718 0-146.523 119.203-265.726 265.726-265.726s265.726 119.203 265.726 265.726c0 146.515-119.203 265.718-265.726 265.718zM511.999 244.727c-112.086 0-203.273 91.187-203.273 203.273 0 112.078 91.187 203.273 203.273 203.273s203.273-91.195 203.273-203.273c0-112.086-91.187-203.273-203.273-203.273zM511.999 596.797c-82.047 0-148.797-66.75-148.797-148.797s66.75-148.797 148.797-148.797 148.797 66.75 148.797 148.797-66.75 148.797-148.797 148.797zM511.999 361.649c-47.609 0-86.351 38.734-86.351 86.351 0 47.609 38.742 86.344 86.351 86.344s86.344-38.734 86.344-86.344c0-47.617-38.734-86.351-86.344-86.351zM992.771 568.742h-75.82c-8.273 27.805-19.406 54.633-33.258 80.195l53.641 53.641c12.195 12.195 12.195 31.969 0 44.156l-126.593 126.601c-5.859 5.859-13.797 9.148-22.078 9.148s-16.227-3.289-22.078-9.148l-53.648-53.641c-25.562 13.859-52.398 24.984-80.195 33.258v75.82c0 17.242-13.977 31.226-31.227 31.226h-179.031c-17.25 0-31.227-13.984-31.227-31.226v-75.82c-27.805-8.273-54.633-19.398-80.195-33.258l-53.641 53.641c-5.859 5.859-13.797 9.148-22.078 9.148s-16.227-3.289-22.078-9.148l-126.601-126.601c-12.195-12.187-12.195-31.961 0-44.156l53.641-53.641c-13.852-25.562-24.984-52.391-33.258-80.195h-75.82c-17.242 0-31.226-13.977-31.226-31.227v-179.039c0-17.242 13.984-31.219 31.226-31.219h75.82c8.273-27.805 19.406-54.641 33.258-80.195l-53.641-53.641c-12.195-12.195-12.195-31.969 0-44.164l126.593-126.601c5.859-5.852 13.797-9.141 22.078-9.141s16.227 3.289 22.078 9.141l53.648 53.648c25.562-13.859 52.391-24.984 80.187-33.258v-75.82c0-17.25 13.984-31.226 31.226-31.226h179.039c17.242 0 31.227 13.977 31.227 31.226v75.82c27.797 8.273 54.633 19.398 80.195 33.258l53.641-53.648c5.859-5.852 13.797-9.141 22.078-9.141s16.227 3.289 22.078 9.141l126.601 126.601c12.195 12.195 12.195 31.969 0 44.164l-53.641 53.641c13.852 25.555 24.984 52.391 33.258 80.195h75.82c17.25 0 31.226 13.977 31.226 31.219v179.039c0 17.25-13.984 31.227-31.226 31.227zM961.545 389.703h-68.594c-14.5 0-27.102-9.984-30.406-24.109-8.867-37.898-23.82-73.953-44.437-107.164-7.648-12.328-5.805-28.297 4.453-38.547l48.539-48.539-82.445-82.445-48.539 48.539c-10.258 10.258-26.219 12.102-38.547 4.453-33.211-20.625-69.273-35.57-107.172-44.445-14.117-3.305-24.102-15.898-24.102-30.398v-68.594h-116.594v68.594c0 14.5-9.984 27.102-24.102 30.398-37.898 8.875-73.961 23.82-107.172 44.445-12.336 7.648-28.297 5.805-38.547-4.453l-48.539-48.539-82.445 82.445 48.539 48.539c10.258 10.25 12.102 26.219 4.453 38.547-20.617 33.211-35.57 69.265-44.437 107.164-3.312 14.125-15.906 24.109-30.406 24.109h-68.594v116.586h68.594c14.5 0 27.102 9.992 30.406 24.109 8.867 37.906 23.82 73.961 44.437 107.172 7.648 12.32 5.805 28.289-4.453 38.547l-48.539 48.539 82.445 82.445 48.539-48.539c10.25-10.258 26.219-12.102 38.547-4.453 33.211 20.617 69.273 35.57 107.172 44.437 14.117 3.305 24.102 15.906 24.102 30.406v68.594h116.594v-68.594c0-14.5 9.984-27.102 24.102-30.406 37.898-8.867 73.961-23.82 107.172-44.437 12.328-7.648 28.297-5.805 38.547 4.453l48.539 48.539 82.445-82.445-48.539-48.539c-10.258-10.258-12.102-26.227-4.453-38.547 20.617-33.211 35.57-69.265 44.437-107.172 3.312-14.117 15.906-24.109 30.406-24.109h68.594z" />
</font>
</defs>
</svg>
